<svg width="312" height="297" viewBox="0 0 312 297" fill="none" xmlns="http://www.w3.org/2000/svg">
<path d="M229.037 134.077C232.487 125.191 237.212 113.023 257.557 82.7326C275.259 56.3772 269.695 39.3855 269.45 38.6752L268.8 36.7958L266.765 37.2025C266.485 37.2586 261.002 38.4524 258.775 45.9038L257.077 46.1158C256.782 46.153 249.83 47.1339 248.722 57.0644C248.686 57.3977 248.641 57.7302 248.594 58.0618C248.478 57.8246 248.353 57.5915 248.219 57.3631L246.693 54.8072L244.536 56.911C240.799 60.555 240.794 63.3732 240.788 66.099C240.782 69.3132 240.774 72.9564 234.14 80.7064C232.954 82.0908 231.816 83.3613 230.717 84.5905C225.621 90.2806 221.221 95.1951 216.614 106.148C211.744 117.72 210.674 118.592 200.425 126.944C197.995 128.918 195.578 130.908 193.176 132.913C176.939 146.494 169.049 156.641 165.699 161.666C156.055 146.038 147.76 136.617 141.594 129.614C134.982 122.103 130.614 117.142 128.594 109.586C126.994 103.6 126.363 99.2293 125.856 95.7165C124.861 88.8112 124.202 84.2498 117.698 76.1252C104.62 59.7943 110.767 48.7014 111.028 48.2501L115.414 40.9018L107.811 45.2644C101.519 48.873 98.1353 55.2849 98.0243 63.8071L98.0217 64.2312C84.0441 39.355 82.8915 14.4565 82.8802 14.1776L82.7138 9.97342L79.1709 12.4872C72.0997 17.504 68.8645 25.3737 69.6635 35.4445C69.2865 33.5915 69.1461 32.5867 69.1409 32.5487L68.4597 27.4667L65.0425 31.4226C59.2367 38.1422 57.7668 48.1206 60.7923 60.2803C62.5881 67.5023 65.4238 73.4192 66.5279 75.5725C65.9625 77.2617 65.5456 78.9927 65.2817 80.7477C58.1551 67.1517 54.366 56.0827 54.3218 55.9523L52.8259 51.5419L50.1653 55.4243C42.9104 66.0148 50.2684 84.1739 56.5985 96.0094C53.4222 92.8496 50.0621 88.9111 47.4179 84.3818L45.3327 80.8079L43.3316 84.4255C43.0092 85.0096 35.7552 99.0198 64.3214 125.133C66.781 127.381 68.3679 129.452 69.381 131.102C66.6978 129.955 63.0968 127.729 59.7289 123.428L56.3203 119.075L55.5637 124.456C55.5022 124.892 54.4449 133.656 65.6829 143.416C64.9888 143.095 64.3164 142.734 63.6697 142.333L58.9905 139.443L60.1311 144.641C60.1978 144.942 61.5905 150.774 70.8543 156.444C68.9477 157.394 68.2465 158.906 67.9909 159.96C67.4223 162.303 68.3661 164.385 69.8551 166.069C67.4024 167.211 67.0904 169.449 67.0644 170.292C67.0124 171.994 67.9605 173.288 69.3689 174.223C68.6287 175.117 68.1651 176.269 68.1997 177.719C68.2621 180.32 70.2035 181.868 72.4932 182.728C71.942 183.724 71.6889 184.93 72.0018 186.349C72.4629 188.432 74.0107 189.911 76.2164 190.488C75.8455 191.939 76.115 193.442 76.9964 194.839C77.8977 196.269 79.2289 197.224 80.8383 197.624C80.6494 198.811 80.9137 200.019 81.6157 201.145C82.5708 202.674 84.1429 203.568 86.0756 203.689C86.229 204.789 86.8079 206.254 88.5144 207.722C89.7286 208.767 91.169 209.35 92.6943 209.419C92.8529 210.401 93.3383 211.401 94.3514 212.283C95.2874 213.096 96.4643 213.526 97.7548 213.526C97.9203 213.526 98.0833 213.518 98.2445 213.506C98.5426 214.3 99.0955 215.093 99.9969 215.825C100.994 216.633 102.155 217.06 103.354 217.06C103.54 217.06 103.721 217.049 103.898 217.031C104.271 217.834 104.904 218.547 105.856 219.06C106.505 219.414 107.239 219.6 107.987 219.599C108.481 219.599 108.948 219.519 109.383 219.387C109.904 220.033 110.709 220.692 111.954 221.2C112.617 221.475 113.331 221.617 114.054 221.62C114.987 221.616 115.903 221.379 116.71 220.933C117.613 221.587 118.845 222.199 120.393 222.334C118.15 224.506 115.088 226.726 111.63 229.235C102.319 235.99 89.5665 245.242 80.9657 262.486C78.585 267.26 78.2669 271.116 80.0176 273.949C81.1781 275.825 83.0622 276.857 84.6898 277.364C85.1613 280.438 87.3825 284.618 93.7187 286.31C95.29 286.73 96.8717 286.943 98.4187 286.943C104.345 286.943 108.417 283.887 110.152 282.275C110.549 282.308 110.94 282.326 111.324 282.326C116.711 282.326 119.95 279.091 121.485 276.382C122.648 276.602 123.752 276.712 124.788 276.712C131.402 276.712 135.639 272.435 137.382 263.999C137.931 261.341 138.541 259.211 139.128 257.525C139.857 259.473 142.37 263.738 148.556 266.566C148.065 265.524 147.768 263.669 147.675 262.491C148.556 263.592 150.079 266.225 158.999 271.124C159.207 271.239 159.451 271.027 159.337 270.826C158.078 268.62 156.857 266.394 155.675 264.149C154.573 262.082 154.95 260.167 155.535 258.836C157.777 260.393 159.975 261.179 162.095 261.179C167.45 261.179 170.227 256.374 171.095 254.531C172.516 253.62 174.09 252.947 175.749 252.541C175.588 255.325 176.238 257.597 177.691 259.318C179.171 261.069 181.47 262.154 184.264 262.447C184.044 263.037 183.9 263.65 183.836 264.273C183.28 269.617 188.81 273.23 189.046 273.381C190.395 274.258 192.123 275.325 194.349 276.395C194.744 276.585 195.173 276.197 194.981 275.816C194.029 273.931 192.976 271.655 192.449 270.613C191.855 269.4 191.93 268.43 192.141 267.775C192.514 267.812 192.878 267.83 193.235 267.83C196.034 267.83 197.904 266.713 199.406 265.817C200.701 265.044 201.487 264.606 202.587 264.606C203.688 264.606 205.117 265.074 206.832 265.997C211.176 268.333 213.777 271.319 214.969 272.944C213.917 274.476 213.167 276.687 214.276 279.02C214.693 279.897 214.65 280.275 214.67 280.281C214.536 280.394 213.988 280.553 213.397 280.554C212.612 280.554 210.939 280.548 209.23 280.514C209.132 280.512 209.036 280.538 208.953 280.587C208.87 280.636 208.804 280.707 208.763 280.791C208.721 280.876 208.707 280.969 208.72 281.061C208.734 281.154 208.775 281.24 208.839 281.31C209.983 282.561 211.142 283.747 211.56 284.23C211.806 284.495 214.08 286.817 217.894 286.817C220.324 286.817 222.753 285.87 225.117 284.001C225.837 283.436 226.486 282.794 227.051 282.086L229.856 282.223C230.054 282.233 230.248 282.237 230.441 282.237C236.496 282.237 241.063 277.499 241.063 271.215C241.063 265.784 234.909 262.937 230.418 260.858C229.531 260.448 228.695 260.057 228.009 259.698V251.271H223.28L225.151 248.507C228.168 244.051 228.6 239.229 226.337 235.277C224.331 231.775 220.574 229.684 216.286 229.684C214.81 229.684 213.326 229.933 211.858 230.426C209.875 229.303 207.828 228.735 205.755 228.735C202.176 228.735 199.197 230.397 196.803 231.733C196.196 232.071 195.581 232.415 195.008 232.696C194.665 231.074 194.129 229.808 193.636 228.897C196.485 225.673 197.277 221.974 197.987 218.665C198.931 214.258 199.582 211.904 202.991 210.715C203.569 210.514 204.11 210.412 204.599 210.412C207.924 210.412 210.122 215.53 211.921 220.327C214.178 226.345 217.021 227.245 218.514 227.245L218.793 227.24L219.173 227.179L219.352 227.12C220.464 226.757 221.359 226.138 222.013 225.312L224.728 224.88C230.774 223.919 234.961 221.534 237.173 217.793C239.67 213.57 238.826 208.875 238.186 206.641C239.852 204.396 240.841 200.555 238.327 194.117C234.484 184.282 223.461 171.91 216.071 171.493C215.925 171.484 215.778 171.48 215.632 171.48C214.327 171.48 213.33 171.819 212.586 172.302C211.636 171.796 210.653 171.351 209.641 170.971C208.289 170.34 206.708 169.842 205.277 169.467C208.596 166.037 214.257 159.836 219.502 152.406C224.882 144.785 226.716 140.059 229.037 134.077Z" fill="white"/>
<path d="M217.577 151.169C230.859 132.349 221.853 131.785 255.6 81.5414C272.912 55.7675 267.244 39.3665 267.244 39.3665C267.244 39.3665 260.687 40.6775 260.199 51.6442C259.872 59.004 256.389 64.1966 256.389 64.1966C259.071 55.0704 257.381 48.3079 257.381 48.3079C257.381 48.3079 251.961 48.9852 251.034 57.2971C250.407 62.9343 248.21 68.423 248.21 68.423C248.997 63.1406 246.202 58.4546 246.202 58.4546C239.046 65.4332 248.498 67.4339 235.943 82.1024C229.348 89.8062 224.227 93.9972 218.772 106.969C212.689 121.425 211.818 120.263 194.711 134.572C171.67 153.844 165.704 166.096 165.704 166.096C144.934 131.204 130.654 126.244 126.344 110.129C121.635 92.5163 125.243 89.1916 115.852 77.4634C101.568 59.6244 109.01 47.1554 109.01 47.1554C95.3966 54.9648 101.897 74.6518 101.897 74.6518C81.7934 46.2429 80.5584 14.2593 80.5584 14.2593C62.0568 27.3859 78.8303 57.1271 78.8303 57.1271C77.7833 64.2716 79.6909 71.7618 79.6909 71.7618C68.8688 48.1685 66.8365 32.8259 66.8365 32.8259C53.8079 47.9045 69.0387 75.4034 69.0387 75.4034C66.2463 82.8803 67.5376 89.5612 67.5376 89.5612C57.4141 72.2807 52.1109 56.6321 52.1109 56.6321C41.639 71.9186 65.4333 106.248 65.4333 106.248C65.4333 106.248 52.8069 98.1668 45.3882 85.4552C45.3882 85.4552 38.2989 98.2773 65.9317 123.538C72.5305 129.57 73.3815 134.504 73.3815 134.504C73.3815 134.504 65.0243 133.888 57.8691 124.75C57.8691 124.75 56.2822 136.053 74.7838 147.186C74.7838 147.186 68.8653 148.178 62.4069 144.19C62.4069 144.19 64.1585 152.163 79.6926 158.31C79.6926 158.31 71.3033 156.139 70.2555 160.458C69.2085 164.778 76.1861 167.878 76.1861 167.878C76.1861 167.878 69.5119 166.351 69.3888 170.359C69.3013 173.183 75.2518 173.884 75.2518 173.884C75.2518 173.884 70.4366 174.041 70.5233 177.67C70.6099 181.298 77.5892 181.449 77.5892 181.449C77.5892 181.449 73.5774 182.738 74.2751 185.895C74.9745 189.05 79.2021 188.788 80.8609 188.124C80.8609 188.124 76.8933 190.38 78.988 193.703C81.0827 197.027 85.4464 195.033 85.4464 195.033C85.4464 195.033 81.7847 197.084 83.6134 200.017C85.2722 202.676 89.1991 200.931 89.1991 200.931C89.1991 200.931 86.8045 203.273 90.0709 206.081C92.7767 208.407 95.6765 206.432 95.6765 206.432C95.6765 206.432 93.912 208.905 95.9192 210.65C97.9255 212.395 100.961 210.15 100.961 210.15C100.961 210.15 99.1484 212.23 101.504 214.14C103.86 216.05 106.103 213.487 106.103 213.487C106.103 213.487 104.993 216.054 107 217.134C109.007 218.215 111.011 215.489 111.011 215.489C111.011 215.489 109.651 217.853 112.87 219.168C115.206 220.122 116.854 217.938 116.854 217.938C116.854 217.938 120.533 223.236 126.296 217.439C123.207 229.114 97.4159 234.662 83.0665 263.435C77.3075 274.982 86.9388 275.563 86.9388 275.563C86.9388 275.563 86.2333 282.014 94.3479 284.18C103.651 286.664 109.272 279.937 109.272 279.937C117.826 281.347 120.127 273.783 120.127 273.783C127.546 275.86 133.01 273.705 135.105 263.57C137.194 253.458 140.153 250.458 140.166 250.444C139.904 258.253 145.142 261.66 145.142 261.66C143.92 255.678 147.473 250.867 147.473 250.867C144.942 259.423 153.606 265.148 153.606 265.148C150.813 259.915 154.973 255.501 154.973 255.501C164.941 264.518 169.21 253.091 169.21 253.091C173.835 249.852 178.478 249.944 178.478 249.944C175.685 262.073 187.441 260.212 187.441 260.212C183.863 258.051 184.512 254.517 184.512 254.517C190.97 254.684 190.173 250.112 190.173 250.112C195.06 252.605 197.399 255.023 197.399 255.023C177.153 263.081 190.347 271.546 190.347 271.546C188.515 267.807 190.946 265.328 190.946 265.328C198.9 267.227 198.55 259.001 207.975 264.07C214.994 267.843 217.823 273.117 217.823 273.117C217.823 273.117 215.131 275.451 216.395 278.108C218.712 282.982 213.3 282.762 213.3 282.762C213.3 282.762 217.436 287.202 223.634 282.299C229.829 277.399 225.303 270.224 225.303 270.224C227.05 270.224 228.576 271.114 228.576 271.114C228.576 271.114 228.223 274.204 230.422 275.415C233.93 277.341 229.977 280.012 229.977 280.012C235.127 280.262 238.742 276.363 238.742 271.212C238.742 266.062 230.265 263.543 226.425 261.383C222.585 259.223 222.725 258.669 216.676 256.499C204.431 252.108 199.072 243.965 199.072 243.965C202.826 241.722 205.904 241.522 205.904 241.522C205.904 241.522 206.142 244.215 209.106 245.799C213.729 248.269 209.72 250.944 209.72 250.944C213.347 250.564 214.317 248.198 214.317 248.198C219.642 248.945 216.421 253.092 216.421 253.092C224.551 250.723 220.16 242.635 220.16 242.635C223.477 241.389 223.2 247.308 223.2 247.308C229.623 237.818 221.088 228.822 211.603 232.902C203.264 227.254 197.492 235.63 193.031 235.538C192.83 230.94 190.711 228.617 190.711 228.617C198.13 222.055 193.313 211.732 202.192 208.637C208.88 206.305 211.927 213.765 214.109 219.58C216.291 225.397 218.6 225.025 218.6 225.025C221.393 224.113 221.001 220.881 220.87 220.037C220.018 214.474 220.628 210.151 220.628 210.151H221.33C221.679 215.884 227.172 216.382 227.172 216.382C226.697 219.599 225.344 221.608 224.348 222.696C241.392 219.985 235.587 206.146 235.587 206.146C243.585 198.745 224.819 174.198 215.936 173.696C213.391 173.553 213.038 175.242 213.038 175.242C211.455 173.987 208.708 172.994 208.708 172.994C205.567 171.499 200.761 170.77 200.761 170.77C200.761 170.77 209.72 162.301 217.577 151.169Z" fill="#54575A"/>
<path d="M217.826 214.537C217.826 214.537 217.708 212.431 218.232 208.608C218.232 208.608 216.959 208.011 215.854 206.349C215.854 206.349 216.073 210.976 217.826 214.537Z" fill="#D21338"/>
<path d="M232.646 208.954C232.73 206.584 230.826 205.16 229.773 204.557C228.864 204.69 227.917 204.961 226.905 205.143L226.906 205.146C230.331 206.639 232.646 208.954 232.646 208.954Z" fill="white"/>
<path d="M234.56 210.275C234.342 210.482 234.013 210.631 233.663 210.738C236.11 207.063 233.023 205.089 233.023 205.089L232.631 204.932C231.698 204.434 230.757 204.414 229.773 204.558C230.827 205.161 232.73 206.585 232.645 208.954C232.645 208.954 230.331 206.639 226.906 205.147L226.905 205.144C225.754 205.351 224.519 205.437 223.155 205.041C222.077 204.73 215.54 202.811 213.337 196.517C210.835 200.093 210.673 204.301 210.673 204.301C205.117 203.044 201.341 204.942 198.905 207.294C200.312 206.375 202.096 205.799 204.415 205.724C213.954 205.411 214.043 218.472 218.288 222.888C219.015 219.57 216.075 213.269 216.075 213.269C212.932 206.039 213.897 200.563 213.897 200.563C216.865 207.629 222.769 209.243 222.769 209.243C222.681 214.148 228.18 215.134 228.18 215.134C228.881 217.461 227.814 219.983 227.814 219.983C231.123 219.262 235.957 216.831 234.56 210.275ZM228.863 219.171C229.385 218.128 229.928 216.53 229.881 214.412C229.881 214.412 226.179 213.965 225.864 210.588C225.864 210.588 227.455 212.957 231.085 213.287C231.086 213.288 231.707 217.161 228.863 219.171Z" fill="#C8C7C7"/>
<path d="M224.827 200.145C224.721 200.463 224.512 200.741 224.23 200.938C223.947 201.135 223.606 201.242 223.256 201.242C222.816 201.242 222.394 201.076 222.084 200.779C221.773 200.483 221.598 200.082 221.598 199.663C221.598 199.586 221.611 199.512 221.621 199.44C221.454 199.321 221.318 199.166 221.224 198.989C221.13 198.811 221.081 198.615 221.081 198.416C221.08 198.096 221.204 197.788 221.428 197.551C221.653 197.314 221.963 197.165 222.297 197.134C222.631 197.103 222.965 197.191 223.234 197.382C223.503 197.572 223.688 197.852 223.753 198.165C223.794 198.178 223.837 198.185 223.877 198.201C223.659 197.57 223.516 196.918 223.451 196.257C223.303 196.236 223.153 196.225 223.003 196.225C222.122 196.225 221.277 196.558 220.654 197.151C220.031 197.744 219.681 198.548 219.681 199.386C219.681 200.225 220.031 201.029 220.654 201.622C221.277 202.215 222.122 202.548 223.003 202.548C223.524 202.548 224.039 202.431 224.504 202.206C224.969 201.982 225.371 201.655 225.679 201.255C225.367 200.905 225.082 200.534 224.827 200.145Z" fill="#D21338"/>
<path d="M222.429 197.131C221.685 197.131 221.081 197.705 221.081 198.415C221.081 198.835 221.295 199.204 221.621 199.439C221.848 199.6 222.125 199.699 222.429 199.699C222.629 199.699 222.826 199.657 223.006 199.576C223.187 199.494 223.346 199.376 223.473 199.229C223.599 199.082 223.69 198.911 223.739 198.726C223.787 198.542 223.792 198.35 223.753 198.163C223.692 197.872 223.526 197.61 223.285 197.422C223.044 197.234 222.741 197.131 222.429 197.131Z" fill="white"/>
<path d="M232.379 266.996C225.78 264.044 224.234 262.036 219.17 259.459C215.728 257.707 209.915 256.884 205.376 253.517C201.816 250.878 199.492 248.609 197.995 246.875C196.917 247.072 196.18 247.471 195.675 247.955C194.989 248.612 194.735 249.425 194.661 250.106C200.014 253.503 201.15 256.278 201.15 256.278C192.332 259.019 190.096 262.597 190.096 262.597C192.655 265.128 195.335 263.032 195.335 263.032C199.003 260.529 202.581 259.952 202.581 259.952C215.852 262.279 220.438 273.504 220.438 273.504C220.438 273.504 218.297 276.165 218.92 277.385C219.46 278.44 219.664 279.317 219.707 280.012C219.786 281.272 219.327 281.931 219.327 281.931C219.327 281.931 224.733 280.404 224.733 276.207C224.733 271.828 221.825 267.488 219.304 264.549C217.376 262.301 215.676 260.872 215.676 260.872C222.465 264.071 224.407 267.777 224.407 267.777C227.425 267.769 231.202 269.741 231.202 269.741C231.202 269.741 229.601 271.553 232.047 273.216C233.022 273.879 233.57 274.534 233.88 275.083C234.348 275.911 234.274 276.498 234.274 276.498C236.376 274.827 236.87 273.181 236.87 271.428C236.87 269.675 235.411 268.353 232.379 266.996ZM214.353 234.399C215.038 234.945 215.612 235.607 216.044 236.351C216.585 237.283 216.958 238.444 216.958 239.9C216.958 240.349 216.919 240.76 216.852 241.141C218.981 239.677 220.73 239.719 221.774 239.975C222.445 240.139 222.829 240.391 222.829 240.391C222.485 233.899 217.641 233.741 214.353 234.399ZM216.755 241.596C216.622 242.132 216.397 242.644 216.089 243.111C215.253 244.369 213.937 245.002 212.71 245.313C212.779 245.431 212.8 245.499 212.8 245.499C215.253 245.184 216.831 245.937 217.771 246.695C218.571 247.34 218.909 247.99 218.909 247.99C220.25 245.568 217.564 242.451 216.755 241.596Z" fill="#C8C7C7"/>
<path d="M211.337 235.312C204.592 230.76 199.866 235.405 195.27 237.346C194.435 237.698 193.604 237.961 192.767 238.064C186.274 240.135 181.151 240.563 178.13 240.577C177.516 240.6 176.901 240.612 176.286 240.612C175.724 243.004 174.52 245.814 172.158 248.805C173.638 248.304 176.483 247.447 178.536 247.489C178.536 247.489 179.138 243.173 188.132 241.843C188.132 241.843 183.742 243.457 181.723 247.553C178.837 253.956 182.01 256.848 182.01 256.848C181.139 254.41 182.327 252.008 182.327 252.008C190.011 254.418 187.387 246.413 187.387 246.413C192.539 241.757 195.478 243.214 195.478 243.214C202.202 238.311 208.314 238.903 208.314 238.903C208.314 238.903 206.671 241.652 209.551 242.981C209.955 243.168 210.305 243.35 210.616 243.529C211.073 243.511 211.527 243.451 211.971 243.35C213.396 243.018 214.902 242.128 214.902 239.848C214.902 237.692 211.337 235.312 211.337 235.312Z" fill="#C8C7C7"/>
<path d="M265.398 43.546C265.398 43.546 263.351 45.6613 262.846 51.9725C262.451 56.9159 261.011 61.2414 259.245 64.8376C253.862 76.7209 242.676 86.9872 234.296 100.078C232.967 102.416 231.375 105.235 229.759 108.136C229.508 108.655 229.262 109.176 229.024 109.7C217.987 134.136 208.686 153.141 189.914 169.938C191.046 169.905 192.151 169.873 193.219 169.853C194.938 169.822 196.553 169.821 197.991 169.901C221.322 147.684 223.727 132.052 227.263 124.122C227.792 122.935 228.336 121.754 228.894 120.58C232.833 112.294 239.183 100.845 252.743 81.1924C268.341 58.5849 265.398 43.546 265.398 43.546Z" fill="#D21338"/>
<path d="M215.685 176.59C214.374 177.025 214.153 178.708 214.153 178.708C201.009 169.862 184.596 174.185 178.308 173.218C165.739 171.286 164.489 169.116 159.494 160.948C149.774 145.054 136.399 132.46 127.364 119.266C123.604 113.776 120.838 100.379 119.965 92.7325C119.091 85.0847 116.751 83.6723 110.246 74.0536C103.739 64.4358 104.408 56.0348 104.408 56.0348C99.4309 70.0813 107.673 82.9249 107.673 82.9249C92.742 70.6241 88.4295 56.0546 88.4295 56.0546C88.4295 56.0546 80.4605 63.9466 81.5083 80.4589C81.5083 80.4589 78.4645 76.1252 76.8343 71.803C76.8343 71.803 69.7164 85.4535 72.6613 99.5197C72.6613 99.5197 69.3637 97.6429 65.9083 91.7623C65.9083 91.7623 66.3745 103.288 72.6613 112.374C72.6613 112.374 68.9355 110.934 66.4907 109.272C66.4907 109.272 67.4605 128.014 95.2839 143.641C95.2839 143.641 81.7076 179.844 106.505 199.348C106.505 199.348 107.26 205.997 114.413 206.875C114.413 206.875 116.035 212.623 122.321 210.518C122.321 210.518 123.738 213.045 129.253 212.105C133.026 224.744 108.562 235.943 98.5495 246.204C93.9978 250.868 90.233 255.836 87.5871 260.363V268.482C91.2028 261.737 97.9931 252.467 109.683 247.131C109.683 247.131 105.375 246.799 98.7393 251.011C98.7393 251.011 114.339 236.16 131.103 229.621C131.103 229.621 130.986 219.316 138.67 214.55C138.67 214.55 128.106 231.431 142.992 243.992C141.683 250.059 143.104 254.003 143.104 254.003C145.025 248.434 149.615 246.214 149.615 246.214C148.393 251.202 150.891 255.927 150.891 255.927C152.375 252.935 154.819 251.967 154.819 251.967C163.811 262.272 167.659 251.124 167.659 251.124C167.661 251.123 167.664 251.122 167.665 251.12C167.663 251.121 167.661 251.122 167.658 251.123L167.668 251.118C167.995 250.898 168.33 250.686 168.67 250.484C169.349 249.976 170.268 249.137 171.09 247.875C172.87 245.144 174.197 240.431 171.674 232.78C171.674 232.78 171.611 237.429 169.141 241.756C169.141 241.756 170.952 236.812 166.063 224.843C166.063 224.843 164.514 227.711 165.474 231.117C165.474 231.117 158.584 220.21 166.617 210.403C166.617 210.403 163.553 217.986 170.277 224.359C170.277 224.359 176.959 226.393 182.42 218.41C182.42 218.41 182.407 222.325 180.619 225.376C180.619 225.376 187.603 222.348 189.394 213.05C189.394 213.05 187.417 213.314 186.202 214.403C186.202 214.403 187.672 209.316 195.276 206.967C195.276 206.967 192.1 210.269 190.545 217.843C188.99 225.416 183.217 230.108 176.144 233.101C176.144 233.101 176.331 233.578 176.492 234.43C182.047 232.864 185.566 230.492 185.566 230.492C188.361 235.48 187.623 237.489 187.623 237.489C188.828 237.214 189.738 236.994 190.408 236.829C190.446 230.656 187.087 228.459 187.087 228.459C194.409 225.474 191.792 211.955 198.903 207.299C198.903 207.299 198.941 207.27 198.906 207.293C201.343 204.94 205.117 203.042 210.674 204.299C210.674 204.299 210.837 200.091 213.338 196.515L213.342 196.528C213.078 195.775 212.886 195 212.769 194.214C212.769 194.214 213.816 196.283 216.959 197.89C216.959 197.89 217.687 194.438 221.55 193.276C221.55 193.276 220.044 191.185 216.959 189.634C216.959 189.634 222.955 188.951 225.283 194.601C227.592 200.208 227.72 202.074 233.509 204.715C233.627 204.61 233.758 204.484 233.899 204.329V204.329C234.411 203.764 235.014 202.863 235.327 201.529C237.391 192.736 219.528 175.312 215.685 176.59ZM124.831 189.215C124.831 189.215 117.53 189.176 116.486 181.895C116.486 181.895 109.953 178.244 111.011 170.459C111.011 170.459 112.828 171.478 115.128 171.099C115.128 171.099 112.023 169.731 110.279 163.781C110.279 163.781 111.585 163.894 113.235 163.548C113.235 163.548 107.234 160.662 108.423 155.215C108.423 155.215 104.407 153.027 105.557 148.554C105.557 148.554 100.792 146.225 102.152 140.505C102.152 140.505 96.9185 138.112 98.7428 132.369C98.7428 132.369 96.1818 131.346 95.3585 128.118C95.3585 128.118 90.0891 126.786 90.5346 121.287C90.5346 121.287 84.2183 118.067 86.697 110.7C86.697 110.7 79.8538 104.096 86.6883 94.927C86.6883 94.927 84.0337 85.8784 92.9491 84.2919C92.9491 84.2919 93.8331 81.1313 92.3884 76.8421C94.5871 79.544 97.2097 83.457 97.9628 89.5628C98.7731 96.124 99.9657 100.064 103.14 105.563C103.14 105.563 94.6859 100.235 92.6111 87.6166C92.6111 87.6166 83.486 94.2604 100.747 111.435C100.747 111.435 91.6205 108.341 88.1539 99.1477C88.1539 99.1477 81.4173 109.6 101.823 116.285C101.823 116.285 97.37 117.905 89.2996 112.824C89.2996 112.824 89.5587 121.974 103.696 120.839C103.696 120.839 102.075 123.636 93.7326 122.102C93.7326 122.102 94.9641 127.694 106.597 126.594C106.597 126.594 105.357 129.393 99.853 128.867C99.853 128.867 100.429 132.638 110.833 132.835C110.833 132.835 106.098 136.247 101.634 134.346C101.634 134.346 102.26 140.764 117.036 139.421C117.036 139.421 112.081 143.905 105.776 142.27C105.776 142.27 108.459 150.707 123.208 147.158C123.208 147.158 119.807 151.211 109.024 150.856C109.024 150.856 110.881 157.743 128.168 153.098C128.168 153.098 121.717 159.067 112.177 157.681C112.177 157.681 115.703 166.253 133.941 160.323C133.941 160.323 130.062 165.813 115.775 165.896C115.775 165.896 120.899 174.832 138.283 166.824C138.283 166.824 130.9 174.43 117.724 174.457C117.724 174.457 119.755 186.283 144.012 173.257C144.012 173.257 137.732 182.398 122.934 183.3C122.934 183.3 132.469 193.169 149.759 178.275C149.759 178.275 147.664 187.565 131.538 189.68C131.538 189.68 143.56 197.493 156.603 182.865C152.61 198.497 133.478 197.767 124.831 189.215ZM233.896 204.328C233.895 204.329 233.897 204.329 233.898 204.329C233.897 204.329 233.895 204.329 233.896 204.328Z" fill="#D21338"/>
</svg>
