<svg width="274" height="54" viewBox="0 0 274 54" fill="none" xmlns="http://www.w3.org/2000/svg">
<path d="M6.93601 17.17C6.55068 16.2293 6.16534 15.2943 5.78001 14.365C5.40601 13.4357 5.02634 12.5063 4.64101 11.577C4.55034 11.3617 4.43134 11.0613 4.28401 10.676C4.14801 10.2793 4.00068 9.82601 3.84201 9.31601C3.69468 8.80601 3.55868 8.27901 3.43401 7.73501C3.45668 8.36968 3.47368 8.97034 3.48501 9.53701C3.49634 10.0923 3.49634 10.625 3.48501 11.135C3.48501 11.3843 3.48501 11.6393 3.48501 11.9C3.48501 12.1607 3.47934 12.4213 3.46801 12.682C3.46801 12.9313 3.46801 13.1863 3.46801 13.447C3.46801 13.6963 3.46801 13.9513 3.46801 14.212C3.46801 14.518 3.45668 14.8127 3.43401 15.096C3.42268 15.3793 3.40568 15.5947 3.38301 15.742C3.57568 15.7193 3.80801 15.708 4.08001 15.708C4.36334 15.6967 4.56168 15.691 4.67501 15.691V17H0.799011V15.878C1.05968 15.8667 1.27501 15.8327 1.44501 15.776C1.62634 15.7193 1.76234 15.589 1.85301 15.385C1.95501 15.181 2.00601 14.8523 2.00601 14.399L2.10801 7.88801C2.11934 7.58201 2.13068 7.28734 2.14201 7.00401C2.15334 6.72068 2.16468 6.50534 2.17601 6.35801C1.99468 6.36934 1.76801 6.38068 1.49601 6.39201C1.22401 6.39201 1.02568 6.39768 0.901011 6.40901V5.10001H4.65801L7.22501 11.679C7.32701 11.9397 7.44034 12.2457 7.56501 12.597C7.68968 12.937 7.80868 13.2713 7.92201 13.6C8.03534 13.9173 8.12034 14.1723 8.17701 14.365H8.19401C8.34134 13.9683 8.47734 13.583 8.60201 13.209C8.72668 12.835 8.85701 12.4723 8.99301 12.121C9.43501 10.9423 9.87134 9.76934 10.302 8.60201C10.744 7.43468 11.186 6.26734 11.628 5.10001H15.555V6.22201C15.3057 6.23334 15.0847 6.26734 14.892 6.32401C14.6993 6.38068 14.552 6.51101 14.45 6.71501C14.3593 6.90768 14.3197 7.23634 14.331 7.70101L14.586 14.212C14.6087 14.518 14.6087 14.8127 14.586 15.096C14.5633 15.3793 14.5407 15.5947 14.518 15.742C14.7107 15.7193 14.943 15.708 15.215 15.708C15.4983 15.6967 15.6967 15.691 15.81 15.691V17H11.084V15.878C11.3447 15.8667 11.5657 15.8327 11.747 15.776C11.9397 15.7193 12.0813 15.589 12.172 15.385C12.274 15.181 12.3137 14.8523 12.291 14.399L12.155 10.795C12.155 10.659 12.1437 10.4267 12.121 10.098C12.0983 9.75801 12.0757 9.38968 12.053 8.99301C12.0417 8.58501 12.0303 8.20534 12.019 7.85401C11.985 7.93334 11.951 8.01268 11.917 8.09201C11.883 8.16001 11.8547 8.23368 11.832 8.31301L8.51701 17.17H6.93601ZM22.8303 17.272C21.7537 17.272 20.8357 17.0907 20.0763 16.728C19.3283 16.3653 18.722 15.8837 18.2573 15.283C17.7927 14.671 17.4527 13.9967 17.2373 13.26C17.022 12.5233 16.9143 11.7867 16.9143 11.05C16.9143 10.336 17.0333 9.61634 17.2713 8.89101C17.5207 8.15434 17.889 7.48001 18.3763 6.86801C18.875 6.25601 19.4983 5.76301 20.2463 5.38901C20.9943 5.01501 21.8727 4.82801 22.8813 4.82801C23.9127 4.82801 24.8023 5.01501 25.5503 5.38901C26.2983 5.76301 26.9103 6.26168 27.3863 6.88501C27.8623 7.49701 28.2137 8.16568 28.4403 8.89101C28.6783 9.61634 28.7973 10.336 28.7973 11.05C28.7973 11.7527 28.6727 12.4667 28.4233 13.192C28.1853 13.9173 27.817 14.5917 27.3183 15.215C26.831 15.827 26.2133 16.3257 25.4653 16.711C24.7173 17.085 23.839 17.272 22.8303 17.272ZM23.0173 16.031C23.6067 16.031 24.0997 15.8893 24.4963 15.606C24.893 15.3113 25.2103 14.9317 25.4483 14.467C25.6863 14.0023 25.8563 13.498 25.9583 12.954C26.0603 12.3987 26.1113 11.8603 26.1113 11.339C26.1113 10.557 26.0433 9.84301 25.9073 9.19701C25.7713 8.55101 25.5617 7.99568 25.2783 7.53101C24.995 7.05501 24.6323 6.69234 24.1903 6.44301C23.7597 6.18234 23.2497 6.05768 22.6603 6.06901C22.0823 6.08034 21.595 6.23901 21.1983 6.54501C20.8017 6.83968 20.4843 7.22501 20.2463 7.70101C20.0083 8.16568 19.8383 8.67568 19.7363 9.23101C19.6343 9.78634 19.5833 10.3247 19.5833 10.846C19.5833 11.3787 19.64 11.9453 19.7533 12.546C19.878 13.1467 20.0707 13.7133 20.3313 14.246C20.592 14.7787 20.9433 15.2093 21.3853 15.538C21.8273 15.8667 22.3713 16.031 23.0173 16.031ZM39.0795 17.17L33.6395 10.217C33.4922 10.0243 33.3392 9.82034 33.1805 9.60501C33.0219 9.38968 32.8632 9.16868 32.7045 8.94201H32.6875L32.7215 14.212C32.7215 14.518 32.7159 14.8127 32.7045 15.096C32.6932 15.3793 32.6762 15.5947 32.6535 15.742C32.8349 15.7193 33.0615 15.708 33.3335 15.708C33.6169 15.6967 33.8152 15.691 33.9285 15.691V17H30.0525V15.878C30.3132 15.8667 30.5285 15.8327 30.6985 15.776C30.8799 15.7193 31.0159 15.589 31.1065 15.385C31.2085 15.181 31.2595 14.8523 31.2595 14.399L31.2255 7.88801C31.2255 7.58201 31.2312 7.28734 31.2425 7.00401C31.2539 6.72068 31.2709 6.50534 31.2935 6.35801C31.1122 6.36934 30.8799 6.38068 30.5965 6.39201C30.3245 6.39201 30.1262 6.39768 30.0015 6.40901V5.10001H32.6705L37.8725 11.662C38.1559 12.0247 38.3882 12.3363 38.5695 12.597C38.7622 12.8577 38.9265 13.0843 39.0625 13.277H39.0795V7.88801C39.0795 7.58201 39.0852 7.28734 39.0965 7.00401C39.1079 6.72068 39.1192 6.50534 39.1305 6.35801C38.9492 6.36934 38.7225 6.38068 38.4505 6.39201C38.1785 6.39201 37.9802 6.39768 37.8555 6.40901V5.10001H41.7315V6.22201C41.4822 6.23334 41.2669 6.26734 41.0855 6.32401C40.9042 6.38068 40.7625 6.51101 40.6605 6.71501C40.5699 6.90768 40.5245 7.23634 40.5245 7.70101V17.17H39.0795ZM51.973 8.94201C51.973 8.33001 51.888 7.82568 51.718 7.42901C51.548 7.02101 51.3043 6.72068 50.987 6.52801C50.681 6.32401 50.3127 6.22768 49.882 6.23901H49.066V14.212C49.066 14.518 49.0603 14.8127 49.049 15.096C49.0377 15.3793 49.0207 15.5947 48.998 15.742C49.1907 15.7193 49.4343 15.708 49.729 15.708C50.035 15.6967 50.2447 15.691 50.358 15.691V17H45.394V15.878C45.6547 15.8667 45.87 15.8327 46.04 15.776C46.2213 15.7193 46.3573 15.589 46.448 15.385C46.55 15.181 46.601 14.8523 46.601 14.399V6.25601H45.819C45.173 6.26734 44.663 6.48834 44.289 6.91901C43.915 7.34968 43.728 8.02401 43.728 8.94201H42.606L42.691 5.10001H52.993L53.095 8.94201H51.973ZM63.0126 8.90801C62.8653 7.96734 62.548 7.25901 62.0606 6.78301C61.5846 6.30701 60.95 6.06334 60.1566 6.05201C59.5673 6.05201 59.0516 6.18801 58.6096 6.46001C58.1676 6.73201 57.7993 7.09468 57.5046 7.54801C57.2213 8.00134 57.006 8.51701 56.8586 9.09501C56.7226 9.67301 56.6546 10.268 56.6546 10.88C56.6546 11.8547 56.7906 12.7217 57.0626 13.481C57.346 14.229 57.754 14.8183 58.2866 15.249C58.8193 15.6797 59.4653 15.895 60.2246 15.895C60.9386 15.895 61.647 15.7137 62.3496 15.351C63.0523 14.977 63.6416 14.4613 64.1176 13.804L64.9336 14.552C64.3783 15.3113 63.7946 15.8893 63.1826 16.286C62.5706 16.6713 61.97 16.932 61.3806 17.068C60.8026 17.204 60.2813 17.272 59.8166 17.272C58.944 17.272 58.1506 17.119 57.4366 16.813C56.7226 16.4957 56.105 16.065 55.5836 15.521C55.0736 14.9657 54.677 14.3253 54.3936 13.6C54.1216 12.8633 53.9856 12.07 53.9856 11.22C53.9856 10.4493 54.1103 9.68434 54.3596 8.92501C54.609 8.16568 54.9773 7.48001 55.4646 6.86801C55.9633 6.24468 56.5866 5.75168 57.3346 5.38901C58.0826 5.01501 58.9496 4.82801 59.9356 4.82801C60.3776 4.82801 60.8593 4.90168 61.3806 5.04901C61.9133 5.18501 62.412 5.38901 62.8766 5.66101L62.8086 4.94701H64.1176V8.90801H63.0126ZM65.9447 17V15.878C66.2054 15.8667 66.4207 15.8327 66.5907 15.776C66.7721 15.7193 66.9081 15.589 66.9987 15.385C67.1007 15.181 67.1517 14.8523 67.1517 14.399V7.88801C67.1517 7.58201 67.1574 7.28734 67.1687 7.00401C67.1914 6.72068 67.2084 6.50534 67.2197 6.35801C67.0384 6.36934 66.8117 6.38068 66.5397 6.39201C66.2677 6.39201 66.0694 6.39768 65.9447 6.40901V5.10001H70.8237V6.22201C70.5744 6.23334 70.3591 6.26734 70.1777 6.32401C69.9964 6.38068 69.8547 6.51101 69.7527 6.71501C69.6621 6.90768 69.6167 7.23634 69.6167 7.70101V14.212C69.6167 14.518 69.6111 14.807 69.5997 15.079C69.5884 15.351 69.5714 15.5607 69.5487 15.708H71.8267C72.4954 15.6967 73.0167 15.4643 73.3907 15.011C73.7761 14.5463 73.9687 13.8493 73.9687 12.92H75.1077L75.0057 17H65.9447ZM75.6383 17V15.827C75.9556 15.827 76.2106 15.7363 76.4033 15.555C76.596 15.3737 76.7546 15.1357 76.8793 14.841C77.0153 14.5463 77.1456 14.229 77.2703 13.889L80.5853 4.79401H81.7753L85.3963 14.059C85.4643 14.229 85.555 14.4897 85.6683 14.841C85.7816 15.181 85.8496 15.4813 85.8723 15.742C86.065 15.7193 86.2463 15.708 86.4163 15.708C86.5976 15.6967 86.745 15.691 86.8583 15.691V17H82.2853V15.878C82.6026 15.878 82.818 15.8157 82.9313 15.691C83.056 15.555 83.1126 15.3737 83.1013 15.147C83.09 14.9203 83.0276 14.6653 82.9143 14.382L82.5743 13.447L78.8853 13.515L78.6133 14.314C78.5566 14.4613 78.4716 14.6823 78.3583 14.977C78.2563 15.2603 78.16 15.4983 78.0693 15.691C78.2506 15.6683 78.466 15.657 78.7153 15.657C78.976 15.6457 79.163 15.64 79.2763 15.64V17H75.6383ZM79.3103 12.24H82.1493L81.3673 10.115C81.22 9.70701 81.0896 9.29901 80.9763 8.89101C80.863 8.47168 80.778 8.10334 80.7213 7.78601H80.7043C80.659 7.97868 80.591 8.26768 80.5003 8.65301C80.4096 9.03834 80.268 9.49734 80.0753 10.03L79.3103 12.24ZM92.6548 6.22201C92.4054 6.23334 92.1901 6.26734 92.0088 6.32401C91.8274 6.38068 91.6858 6.51101 91.5838 6.71501C91.4931 6.90768 91.4478 7.23634 91.4478 7.70101V14.212C91.4478 14.518 91.4421 14.8127 91.4308 15.096C91.4194 15.3793 91.4024 15.5947 91.3798 15.742C91.5611 15.7193 91.7878 15.708 92.0598 15.708C92.3431 15.6967 92.5414 15.691 92.6548 15.691V17H87.7758V15.878C88.0364 15.8667 88.2518 15.8327 88.4218 15.776C88.6031 15.7193 88.7391 15.589 88.8298 15.385C88.9318 15.181 88.9828 14.8523 88.9828 14.399V7.88801C88.9828 7.58201 88.9884 7.28734 88.9998 7.00401C89.0224 6.72068 89.0394 6.50534 89.0508 6.35801C88.8694 6.36934 88.6428 6.38068 88.3708 6.39201C88.0988 6.39201 87.9004 6.39768 87.7758 6.40901V5.10001H92.6548V6.22201ZM94.35 17V15.878C94.6107 15.8667 94.826 15.8327 94.996 15.776C95.1773 15.7193 95.3133 15.589 95.404 15.385C95.506 15.181 95.557 14.8523 95.557 14.399V7.88801C95.557 7.58201 95.5627 7.28734 95.574 7.00401C95.5967 6.72068 95.6137 6.50534 95.625 6.35801C95.4437 6.36934 95.217 6.38068 94.945 6.39201C94.673 6.39201 94.4747 6.39768 94.35 6.40901V5.10001C95.1547 5.08868 95.9593 5.08301 96.764 5.08301C97.5687 5.08301 98.3733 5.07734 99.178 5.06601C100.175 5.05468 101.042 5.16801 101.779 5.40601C102.516 5.64401 103.082 6.02934 103.479 6.56201C103.876 7.09468 104.063 7.81434 104.04 8.72101C104.029 9.19701 103.91 9.65034 103.683 10.081C103.468 10.5117 103.139 10.8913 102.697 11.22C102.266 11.5487 101.717 11.8093 101.048 12.002C101.263 12.0927 101.473 12.24 101.677 12.444C101.892 12.648 102.074 12.8633 102.221 13.09L103.02 14.28C103.269 14.6653 103.49 14.9713 103.683 15.198C103.876 15.4247 104.068 15.5947 104.261 15.708C104.454 15.81 104.675 15.8667 104.924 15.878V17H102.119C101.915 16.8527 101.711 16.643 101.507 16.371C101.314 16.0877 101.105 15.7647 100.878 15.402L99.62 13.362C99.4727 13.1353 99.3423 12.9427 99.229 12.784C99.127 12.6253 99.0193 12.4893 98.906 12.376C98.7247 12.376 98.5717 12.376 98.447 12.376C98.3223 12.376 98.1807 12.376 98.022 12.376V14.195C98.022 14.5123 98.0163 14.8127 98.005 15.096C97.9937 15.3793 97.9767 15.5947 97.954 15.742C98.0787 15.7307 98.2373 15.725 98.43 15.725C98.6227 15.7137 98.8097 15.708 98.991 15.708C99.1837 15.6967 99.3197 15.691 99.399 15.691V17H94.35ZM98.838 11.152C99.4727 11.152 99.9827 11.0613 100.368 10.88C100.753 10.6873 101.031 10.404 101.201 10.03C101.382 9.64468 101.473 9.16301 101.473 8.58501C101.473 8.04101 101.388 7.61601 101.218 7.31001C101.048 6.99268 100.833 6.76034 100.572 6.61301C100.323 6.45434 100.068 6.35801 99.807 6.32401C99.5463 6.27868 99.331 6.25601 99.161 6.25601C98.923 6.25601 98.719 6.28434 98.549 6.34101C98.379 6.39768 98.2487 6.52234 98.158 6.71501C98.0673 6.90768 98.022 7.20234 98.022 7.59901V11.084C98.1467 11.0953 98.277 11.1123 98.413 11.135C98.549 11.1463 98.6907 11.152 98.838 11.152ZM117.338 8.90801C117.236 8.27334 117.055 7.74634 116.794 7.32701C116.533 6.89634 116.199 6.57334 115.791 6.35801C115.394 6.14268 114.93 6.04068 114.397 6.05201C113.91 6.05201 113.479 6.18801 113.105 6.46001C112.742 6.73201 112.561 7.08334 112.561 7.51401C112.561 7.86534 112.657 8.17134 112.85 8.43201C113.054 8.69268 113.36 8.93634 113.768 9.16301C114.176 9.38968 114.692 9.63334 115.315 9.89401C115.746 10.064 116.188 10.2623 116.641 10.489C117.094 10.7157 117.514 10.9877 117.899 11.305C118.284 11.611 118.596 11.9737 118.834 12.393C119.072 12.801 119.191 13.2827 119.191 13.838C119.191 14.5067 119.01 15.1017 118.647 15.623C118.284 16.1443 117.774 16.5523 117.117 16.847C116.471 17.1303 115.712 17.272 114.839 17.272C114.386 17.272 113.893 17.1983 113.36 17.051C112.839 16.915 112.346 16.711 111.881 16.439L111.932 17.153H110.623V13.175H111.745C111.904 14.127 112.266 14.8467 112.833 15.334C113.411 15.81 114.097 16.048 114.89 16.048C115.298 16.048 115.655 15.9743 115.961 15.827C116.267 15.6797 116.505 15.487 116.675 15.249C116.845 14.9997 116.93 14.7333 116.93 14.45C116.93 14.0533 116.788 13.7247 116.505 13.464C116.233 13.2033 115.887 12.9823 115.468 12.801C115.06 12.6197 114.641 12.444 114.21 12.274C113.666 12.0473 113.156 11.8093 112.68 11.56C112.215 11.2993 111.807 11.0047 111.456 10.676C111.105 10.3473 110.833 9.97334 110.64 9.55401C110.447 9.12334 110.351 8.63034 110.351 8.07501C110.351 7.72368 110.419 7.36101 110.555 6.98701C110.691 6.60168 110.912 6.25034 111.218 5.93301C111.524 5.60434 111.932 5.33801 112.442 5.13401C112.952 4.93001 113.581 4.82801 114.329 4.82801C114.782 4.82801 115.275 4.89601 115.808 5.03201C116.352 5.16801 116.817 5.37201 117.202 5.64401L117.134 4.94701H118.46V8.90801H117.338ZM129.419 8.94201C129.419 8.33001 129.334 7.82568 129.164 7.42901C128.994 7.02101 128.751 6.72068 128.433 6.52801C128.127 6.32401 127.759 6.22768 127.328 6.23901H126.512V14.212C126.512 14.518 126.507 14.8127 126.495 15.096C126.484 15.3793 126.467 15.5947 126.444 15.742C126.637 15.7193 126.881 15.708 127.175 15.708C127.481 15.6967 127.691 15.691 127.804 15.691V17H122.84V15.878C123.101 15.8667 123.316 15.8327 123.486 15.776C123.668 15.7193 123.804 15.589 123.894 15.385C123.996 15.181 124.047 14.8523 124.047 14.399V6.25601H123.265C122.619 6.26734 122.109 6.48834 121.735 6.91901C121.361 7.34968 121.174 8.02401 121.174 8.94201H120.052L120.137 5.10001H130.439L130.541 8.94201H129.419ZM129.992 17V15.827C130.309 15.827 130.564 15.7363 130.757 15.555C130.949 15.3737 131.108 15.1357 131.233 14.841C131.369 14.5463 131.499 14.229 131.624 13.889L134.939 4.79401H136.129L139.75 14.059C139.818 14.229 139.908 14.4897 140.022 14.841C140.135 15.181 140.203 15.4813 140.226 15.742C140.418 15.7193 140.6 15.708 140.77 15.708C140.951 15.6967 141.098 15.691 141.212 15.691V17H136.639V15.878C136.956 15.878 137.171 15.8157 137.285 15.691C137.409 15.555 137.466 15.3737 137.455 15.147C137.443 14.9203 137.381 14.6653 137.268 14.382L136.928 13.447L133.239 13.515L132.967 14.314C132.91 14.4613 132.825 14.6823 132.712 14.977C132.61 15.2603 132.513 15.4983 132.423 15.691C132.604 15.6683 132.819 15.657 133.069 15.657C133.329 15.6457 133.516 15.64 133.63 15.64V17H129.992ZM133.664 12.24H136.503L135.721 10.115C135.573 9.70701 135.443 9.29901 135.33 8.89101C135.216 8.47168 135.131 8.10334 135.075 7.78601H135.058C135.012 7.97868 134.944 8.26768 134.854 8.65301C134.763 9.03834 134.621 9.49734 134.429 10.03L133.664 12.24ZM150.005 8.94201C150.005 8.33001 149.92 7.82568 149.75 7.42901C149.58 7.02101 149.337 6.72068 149.019 6.52801C148.713 6.32401 148.345 6.22768 147.914 6.23901H147.098V14.212C147.098 14.518 147.093 14.8127 147.081 15.096C147.07 15.3793 147.053 15.5947 147.03 15.742C147.223 15.7193 147.467 15.708 147.761 15.708C148.067 15.6967 148.277 15.691 148.39 15.691V17H143.426V15.878C143.687 15.8667 143.902 15.8327 144.072 15.776C144.254 15.7193 144.39 15.589 144.48 15.385C144.582 15.181 144.633 14.8523 144.633 14.399V6.25601H143.851C143.205 6.26734 142.695 6.48834 142.321 6.91901C141.947 7.34968 141.76 8.02401 141.76 8.94201H140.638L140.723 5.10001H151.025L151.127 8.94201H150.005ZM158.053 12.903C158.053 12.427 157.979 12.087 157.832 11.883C157.685 11.6677 157.481 11.5317 157.22 11.475C156.971 11.4183 156.693 11.3957 156.387 11.407L155.945 11.424V14.212C155.945 14.518 155.939 14.807 155.928 15.079C155.917 15.351 155.9 15.5607 155.877 15.708H158.155C158.495 15.708 158.824 15.6343 159.141 15.487C159.458 15.3283 159.719 15.0733 159.923 14.722C160.127 14.3593 160.229 13.872 160.229 13.26H161.334L161.249 17H152.273V15.878C152.534 15.8667 152.749 15.8327 152.919 15.776C153.1 15.7193 153.236 15.589 153.327 15.385C153.429 15.181 153.48 14.8523 153.48 14.399V7.88801C153.48 7.58201 153.486 7.28734 153.497 7.00401C153.52 6.72068 153.537 6.50534 153.548 6.35801C153.367 6.36934 153.14 6.38068 152.868 6.39201C152.596 6.39201 152.398 6.39768 152.273 6.40901V5.10001H160.773L160.875 8.39801H159.753C159.753 7.77468 159.645 7.30434 159.43 6.98701C159.215 6.66968 158.948 6.46001 158.631 6.35801C158.314 6.24468 158.002 6.19368 157.696 6.20501L157.084 6.22201C156.846 6.22201 156.642 6.25601 156.472 6.32401C156.302 6.38068 156.172 6.51668 156.081 6.73201C155.99 6.93601 155.945 7.25901 155.945 7.70101V10.251H157.934L157.866 8.77201H159.175V12.903H158.053ZM171.818 6.22201C171.569 6.23334 171.353 6.26734 171.172 6.32401C170.991 6.38068 170.849 6.51101 170.747 6.71501C170.656 6.90768 170.611 7.23634 170.611 7.70101V12.376C170.611 13.09 170.685 13.6793 170.832 14.144C170.991 14.5973 171.195 14.96 171.444 15.232C171.705 15.4927 171.994 15.6797 172.311 15.793C172.64 15.9063 172.974 15.9687 173.314 15.98C173.937 16.0027 174.47 15.8837 174.912 15.623C175.354 15.3623 175.694 14.96 175.932 14.416C176.17 13.872 176.289 13.1807 176.289 12.342V7.88801C176.289 7.58201 176.295 7.28734 176.306 7.00401C176.317 6.72068 176.334 6.50534 176.357 6.35801C176.176 6.36934 175.943 6.38068 175.66 6.39201C175.388 6.39201 175.19 6.39768 175.065 6.40901V5.10001H179.009V6.22201C178.76 6.23334 178.544 6.26734 178.363 6.32401C178.182 6.38068 178.04 6.51101 177.938 6.71501C177.847 6.90768 177.802 7.23634 177.802 7.70101V11.951C177.802 12.9257 177.683 13.753 177.445 14.433C177.207 15.113 176.873 15.6627 176.442 16.082C176.011 16.5013 175.507 16.8073 174.929 17C174.351 17.1813 173.722 17.272 173.042 17.272C172.09 17.272 171.297 17.136 170.662 16.864C170.027 16.592 169.523 16.2123 169.149 15.725C168.786 15.2377 168.526 14.6767 168.367 14.042C168.22 13.4073 168.146 12.7273 168.146 12.002V7.88801C168.146 7.58201 168.152 7.28734 168.163 7.00401C168.186 6.72068 168.203 6.50534 168.214 6.35801C168.033 6.36934 167.806 6.38068 167.534 6.39201C167.262 6.39201 167.064 6.39768 166.939 6.40901V5.10001H171.818V6.22201ZM189.307 17.17L183.867 10.217C183.72 10.0243 183.567 9.82034 183.408 9.60501C183.249 9.38968 183.091 9.16868 182.932 8.94201H182.915L182.949 14.212C182.949 14.518 182.943 14.8127 182.932 15.096C182.921 15.3793 182.904 15.5947 182.881 15.742C183.062 15.7193 183.289 15.708 183.561 15.708C183.844 15.6967 184.043 15.691 184.156 15.691V17H180.28V15.878C180.541 15.8667 180.756 15.8327 180.926 15.776C181.107 15.7193 181.243 15.589 181.334 15.385C181.436 15.181 181.487 14.8523 181.487 14.399L181.453 7.88801C181.453 7.58201 181.459 7.28734 181.47 7.00401C181.481 6.72068 181.498 6.50534 181.521 6.35801C181.34 6.36934 181.107 6.38068 180.824 6.39201C180.552 6.39201 180.354 6.39768 180.229 6.40901V5.10001H182.898L188.1 11.662C188.383 12.0247 188.616 12.3363 188.797 12.597C188.99 12.8577 189.154 13.0843 189.29 13.277H189.307V7.88801C189.307 7.58201 189.313 7.28734 189.324 7.00401C189.335 6.72068 189.347 6.50534 189.358 6.35801C189.177 6.36934 188.95 6.38068 188.678 6.39201C188.406 6.39201 188.208 6.39768 188.083 6.40901V5.10001H191.959V6.22201C191.71 6.23334 191.494 6.26734 191.313 6.32401C191.132 6.38068 190.99 6.51101 190.888 6.71501C190.797 6.90768 190.752 7.23634 190.752 7.70101V17.17H189.307ZM198.291 6.22201C198.041 6.23334 197.826 6.26734 197.645 6.32401C197.463 6.38068 197.322 6.51101 197.22 6.71501C197.129 6.90768 197.084 7.23634 197.084 7.70101V14.212C197.084 14.518 197.078 14.8127 197.067 15.096C197.055 15.3793 197.038 15.5947 197.016 15.742C197.197 15.7193 197.424 15.708 197.696 15.708C197.979 15.6967 198.177 15.691 198.291 15.691V17H193.412V15.878C193.672 15.8667 193.888 15.8327 194.058 15.776C194.239 15.7193 194.375 15.589 194.466 15.385C194.568 15.181 194.619 14.8523 194.619 14.399V7.88801C194.619 7.58201 194.624 7.28734 194.636 7.00401C194.658 6.72068 194.675 6.50534 194.687 6.35801C194.505 6.36934 194.279 6.38068 194.007 6.39201C193.735 6.39201 193.536 6.39768 193.412 6.40901V5.10001H198.291V6.22201ZM204.576 17.102L200.666 7.97301C200.552 7.68968 200.445 7.39501 200.343 7.08901C200.241 6.78301 200.19 6.53934 200.19 6.35801C200.008 6.36934 199.838 6.38068 199.68 6.39201C199.532 6.39201 199.396 6.39768 199.272 6.40901V5.10001H204.287V6.22201C203.867 6.21068 203.544 6.30134 203.318 6.49401C203.102 6.68668 203.097 7.03234 203.301 7.53101C203.561 8.16568 203.822 8.80601 204.083 9.45201C204.343 10.098 204.604 10.7383 204.865 11.373C205.057 11.849 205.222 12.2683 205.358 12.631C205.494 12.9823 205.652 13.3733 205.834 13.804H205.851C205.975 13.464 206.106 13.0843 206.242 12.665C206.389 12.2457 206.531 11.8433 206.667 11.458C206.814 11.0613 206.956 10.6647 207.092 10.268C207.239 9.87134 207.386 9.48034 207.534 9.09501C207.681 8.69834 207.823 8.30168 207.959 7.90501C208.015 7.71234 208.106 7.45168 208.231 7.12301C208.367 6.79434 208.508 6.53934 208.656 6.35801C208.474 6.36934 208.242 6.38068 207.959 6.39201C207.675 6.39201 207.471 6.39768 207.347 6.40901V5.10001H211.172V6.22201C210.786 6.23334 210.452 6.37501 210.169 6.64701C209.885 6.91901 209.619 7.38368 209.37 8.04101C209.177 8.53968 208.984 9.04401 208.792 9.55401C208.61 10.0527 208.423 10.557 208.231 11.067C208.049 11.5657 207.862 12.07 207.67 12.58C207.477 13.0787 207.284 13.583 207.092 14.093C206.91 14.5917 206.723 15.0903 206.531 15.589C206.349 16.0877 206.162 16.592 205.97 17.102H204.576ZM217.802 12.903C217.802 12.427 217.728 12.087 217.581 11.883C217.434 11.6677 217.23 11.5317 216.969 11.475C216.72 11.4183 216.442 11.3957 216.136 11.407L215.694 11.424V14.212C215.694 14.518 215.688 14.807 215.677 15.079C215.666 15.351 215.649 15.5607 215.626 15.708H217.904C218.244 15.708 218.573 15.6343 218.89 15.487C219.207 15.3283 219.468 15.0733 219.672 14.722C219.876 14.3593 219.978 13.872 219.978 13.26H221.083L220.998 17H212.022V15.878C212.283 15.8667 212.498 15.8327 212.668 15.776C212.849 15.7193 212.985 15.589 213.076 15.385C213.178 15.181 213.229 14.8523 213.229 14.399V7.88801C213.229 7.58201 213.235 7.28734 213.246 7.00401C213.269 6.72068 213.286 6.50534 213.297 6.35801C213.116 6.36934 212.889 6.38068 212.617 6.39201C212.345 6.39201 212.147 6.39768 212.022 6.40901V5.10001H220.522L220.624 8.39801H219.502C219.502 7.77468 219.394 7.30434 219.179 6.98701C218.964 6.66968 218.697 6.46001 218.38 6.35801C218.063 6.24468 217.751 6.19368 217.445 6.20501L216.833 6.22201C216.595 6.22201 216.391 6.25601 216.221 6.32401C216.051 6.38068 215.921 6.51668 215.83 6.73201C215.739 6.93601 215.694 7.25901 215.694 7.70101V10.251H217.683L217.615 8.77201H218.924V12.903H217.802ZM222.63 17V15.878C222.891 15.8667 223.106 15.8327 223.276 15.776C223.458 15.7193 223.594 15.589 223.684 15.385C223.786 15.181 223.837 14.8523 223.837 14.399V7.88801C223.837 7.58201 223.843 7.28734 223.854 7.00401C223.877 6.72068 223.894 6.50534 223.905 6.35801C223.724 6.36934 223.497 6.38068 223.225 6.39201C222.953 6.39201 222.755 6.39768 222.63 6.40901V5.10001C223.435 5.08868 224.24 5.08301 225.044 5.08301C225.849 5.08301 226.654 5.07734 227.458 5.06601C228.456 5.05468 229.323 5.16801 230.059 5.40601C230.796 5.64401 231.363 6.02934 231.759 6.56201C232.156 7.09468 232.343 7.81434 232.32 8.72101C232.309 9.19701 232.19 9.65034 231.963 10.081C231.748 10.5117 231.419 10.8913 230.977 11.22C230.547 11.5487 229.997 11.8093 229.328 12.002C229.544 12.0927 229.753 12.24 229.957 12.444C230.173 12.648 230.354 12.8633 230.501 13.09L231.3 14.28C231.55 14.6653 231.771 14.9713 231.963 15.198C232.156 15.4247 232.349 15.5947 232.541 15.708C232.734 15.81 232.955 15.8667 233.204 15.878V17H230.399C230.195 16.8527 229.991 16.643 229.787 16.371C229.595 16.0877 229.385 15.7647 229.158 15.402L227.9 13.362C227.753 13.1353 227.623 12.9427 227.509 12.784C227.407 12.6253 227.3 12.4893 227.186 12.376C227.005 12.376 226.852 12.376 226.727 12.376C226.603 12.376 226.461 12.376 226.302 12.376V14.195C226.302 14.5123 226.297 14.8127 226.285 15.096C226.274 15.3793 226.257 15.5947 226.234 15.742C226.359 15.7307 226.518 15.725 226.71 15.725C226.903 15.7137 227.09 15.708 227.271 15.708C227.464 15.6967 227.6 15.691 227.679 15.691V17H222.63ZM227.118 11.152C227.753 11.152 228.263 11.0613 228.648 10.88C229.034 10.6873 229.311 10.404 229.481 10.03C229.663 9.64468 229.753 9.16301 229.753 8.58501C229.753 8.04101 229.668 7.61601 229.498 7.31001C229.328 6.99268 229.113 6.76034 228.852 6.61301C228.603 6.45434 228.348 6.35801 228.087 6.32401C227.827 6.27868 227.611 6.25601 227.441 6.25601C227.203 6.25601 226.999 6.28434 226.829 6.34101C226.659 6.39768 226.529 6.52234 226.438 6.71501C226.348 6.90768 226.302 7.20234 226.302 7.59901V11.084C226.427 11.0953 226.557 11.1123 226.693 11.135C226.829 11.1463 226.971 11.152 227.118 11.152ZM241.153 8.90801C241.051 8.27334 240.869 7.74634 240.609 7.32701C240.348 6.89634 240.014 6.57334 239.606 6.35801C239.209 6.14268 238.744 6.04068 238.212 6.05201C237.724 6.05201 237.294 6.18801 236.92 6.46001C236.557 6.73201 236.376 7.08334 236.376 7.51401C236.376 7.86534 236.472 8.17134 236.665 8.43201C236.869 8.69268 237.175 8.93634 237.583 9.16301C237.991 9.38968 238.506 9.63334 239.13 9.89401C239.56 10.064 240.002 10.2623 240.456 10.489C240.909 10.7157 241.328 10.9877 241.714 11.305C242.099 11.611 242.411 11.9737 242.649 12.393C242.887 12.801 243.006 13.2827 243.006 13.838C243.006 14.5067 242.824 15.1017 242.462 15.623C242.099 16.1443 241.589 16.5523 240.932 16.847C240.286 17.1303 239.526 17.272 238.654 17.272C238.2 17.272 237.707 17.1983 237.175 17.051C236.653 16.915 236.16 16.711 235.696 16.439L235.747 17.153H234.438V13.175H235.56C235.718 14.127 236.081 14.8467 236.648 15.334C237.226 15.81 237.911 16.048 238.705 16.048C239.113 16.048 239.47 15.9743 239.776 15.827C240.082 15.6797 240.32 15.487 240.49 15.249C240.66 14.9997 240.745 14.7333 240.745 14.45C240.745 14.0533 240.603 13.7247 240.32 13.464C240.048 13.2033 239.702 12.9823 239.283 12.801C238.875 12.6197 238.455 12.444 238.025 12.274C237.481 12.0473 236.971 11.8093 236.495 11.56C236.03 11.2993 235.622 11.0047 235.271 10.676C234.919 10.3473 234.647 9.97334 234.455 9.55401C234.262 9.12334 234.166 8.63034 234.166 8.07501C234.166 7.72368 234.234 7.36101 234.37 6.98701C234.506 6.60168 234.727 6.25034 235.033 5.93301C235.339 5.60434 235.747 5.33801 236.257 5.13401C236.767 4.93001 237.396 4.82801 238.144 4.82801C238.597 4.82801 239.09 4.89601 239.623 5.03201C240.167 5.16801 240.631 5.37201 241.017 5.64401L240.949 4.94701H242.275V8.90801H241.153ZM249.324 6.22201C249.074 6.23334 248.859 6.26734 248.678 6.32401C248.496 6.38068 248.355 6.51101 248.253 6.71501C248.162 6.90768 248.117 7.23634 248.117 7.70101V14.212C248.117 14.518 248.111 14.8127 248.1 15.096C248.088 15.3793 248.071 15.5947 248.049 15.742C248.23 15.7193 248.457 15.708 248.729 15.708C249.012 15.6967 249.21 15.691 249.324 15.691V17H244.445V15.878C244.705 15.8667 244.921 15.8327 245.091 15.776C245.272 15.7193 245.408 15.589 245.499 15.385C245.601 15.181 245.652 14.8523 245.652 14.399V7.88801C245.652 7.58201 245.657 7.28734 245.669 7.00401C245.691 6.72068 245.708 6.50534 245.72 6.35801C245.538 6.36934 245.312 6.38068 245.04 6.39201C244.768 6.39201 244.569 6.39768 244.445 6.40901V5.10001H249.324V6.22201ZM259.808 8.94201C259.808 8.33001 259.723 7.82568 259.553 7.42901C259.383 7.02101 259.139 6.72068 258.822 6.52801C258.516 6.32401 258.148 6.22768 257.717 6.23901H256.901V14.212C256.901 14.518 256.895 14.8127 256.884 15.096C256.873 15.3793 256.856 15.5947 256.833 15.742C257.026 15.7193 257.269 15.708 257.564 15.708C257.87 15.6967 258.08 15.691 258.193 15.691V17H253.229V15.878C253.49 15.8667 253.705 15.8327 253.875 15.776C254.056 15.7193 254.192 15.589 254.283 15.385C254.385 15.181 254.436 14.8523 254.436 14.399V6.25601H253.654C253.008 6.26734 252.498 6.48834 252.124 6.91901C251.75 7.34968 251.563 8.02401 251.563 8.94201H250.441L250.526 5.10001H260.828L260.93 8.94201H259.808ZM264.677 17V15.878C264.937 15.8667 265.153 15.8327 265.323 15.776C265.504 15.7193 265.64 15.589 265.731 15.385C265.833 15.181 265.884 14.8523 265.884 14.399V12.92L262.756 7.97301C262.597 7.71234 262.45 7.42334 262.314 7.10601C262.178 6.78868 262.11 6.53934 262.11 6.35801C261.928 6.36934 261.775 6.38068 261.651 6.39201C261.526 6.39201 261.401 6.39768 261.277 6.40901V5.10001H266.292V6.22201C265.963 6.19934 265.691 6.23334 265.476 6.32401C265.26 6.41468 265.13 6.56201 265.085 6.76601C265.039 6.95868 265.107 7.21368 265.289 7.53101L266.581 9.65601C266.637 9.74668 266.722 9.89401 266.836 10.098C266.949 10.2907 267.062 10.5003 267.176 10.727C267.3 10.9423 267.391 11.135 267.448 11.305H267.465C267.521 11.169 267.618 10.965 267.754 10.693C267.89 10.421 268.06 10.0697 268.264 9.63901L269.148 7.90501C269.204 7.78034 269.284 7.62168 269.386 7.42901C269.488 7.22501 269.595 7.02668 269.709 6.83401C269.833 6.63001 269.947 6.46568 270.049 6.34101C269.867 6.35234 269.635 6.36368 269.352 6.37501C269.068 6.38634 268.864 6.39768 268.74 6.40901V5.10001H272.497V6.22201C272.1 6.27868 271.76 6.44301 271.477 6.71501C271.193 6.97568 270.887 7.41768 270.559 8.04101C270.196 8.74368 269.828 9.45201 269.454 10.166C269.08 10.88 268.711 11.5883 268.349 12.291C268.349 12.4497 268.349 12.6083 268.349 12.767C268.349 12.9257 268.349 13.09 268.349 13.26C268.349 13.4187 268.349 13.5773 268.349 13.736C268.349 13.8947 268.349 14.0533 268.349 14.212C268.349 14.518 268.343 14.8127 268.332 15.096C268.32 15.3793 268.303 15.5947 268.281 15.742C268.473 15.7193 268.717 15.708 269.012 15.708C269.318 15.6967 269.527 15.691 269.641 15.691V17H264.677Z" fill="#CC1808"/>
<path d="M78.936 49.17C78.5507 48.2293 78.1653 47.2943 77.78 46.365C77.406 45.4357 77.0263 44.5063 76.641 43.577C76.5503 43.3617 76.4313 43.0613 76.284 42.676C76.148 42.2793 76.0007 41.826 75.842 41.316C75.6947 40.806 75.5587 40.279 75.434 39.735C75.4567 40.3697 75.4737 40.9703 75.485 41.537C75.4963 42.0923 75.4963 42.625 75.485 43.135C75.485 43.3843 75.485 43.6393 75.485 43.9C75.485 44.1607 75.4793 44.4213 75.468 44.682C75.468 44.9313 75.468 45.1863 75.468 45.447C75.468 45.6963 75.468 45.9513 75.468 46.212C75.468 46.518 75.4567 46.8127 75.434 47.096C75.4227 47.3793 75.4057 47.5947 75.383 47.742C75.5757 47.7193 75.808 47.708 76.08 47.708C76.3633 47.6967 76.5617 47.691 76.675 47.691V49H72.799V47.878C73.0597 47.8667 73.275 47.8327 73.445 47.776C73.6263 47.7193 73.7623 47.589 73.853 47.385C73.955 47.181 74.006 46.8523 74.006 46.399L74.108 39.888C74.1193 39.582 74.1307 39.2873 74.142 39.004C74.1533 38.7207 74.1647 38.5053 74.176 38.358C73.9947 38.3693 73.768 38.3807 73.496 38.392C73.224 38.392 73.0257 38.3977 72.901 38.409V37.1H76.658L79.225 43.679C79.327 43.9397 79.4403 44.2457 79.565 44.597C79.6897 44.937 79.8087 45.2713 79.922 45.6C80.0353 45.9173 80.1203 46.1723 80.177 46.365H80.194C80.3413 45.9683 80.4773 45.583 80.602 45.209C80.7267 44.835 80.857 44.4723 80.993 44.121C81.435 42.9423 81.8713 41.7693 82.302 40.602C82.744 39.4347 83.186 38.2673 83.628 37.1H87.555V38.222C87.3057 38.2333 87.0847 38.2673 86.892 38.324C86.6993 38.3807 86.552 38.511 86.45 38.715C86.3593 38.9077 86.3197 39.2363 86.331 39.701L86.586 46.212C86.6087 46.518 86.6087 46.8127 86.586 47.096C86.5633 47.3793 86.5407 47.5947 86.518 47.742C86.7107 47.7193 86.943 47.708 87.215 47.708C87.4983 47.6967 87.6967 47.691 87.81 47.691V49H83.084V47.878C83.3447 47.8667 83.5657 47.8327 83.747 47.776C83.9397 47.7193 84.0813 47.589 84.172 47.385C84.274 47.181 84.3137 46.8523 84.291 46.399L84.155 42.795C84.155 42.659 84.1437 42.4267 84.121 42.098C84.0983 41.758 84.0757 41.3897 84.053 40.993C84.0417 40.585 84.0303 40.2053 84.019 39.854C83.985 39.9333 83.951 40.0127 83.917 40.092C83.883 40.16 83.8547 40.2337 83.832 40.313L80.517 49.17H78.936ZM88.5866 49V47.827C88.9039 47.827 89.1589 47.7363 89.3516 47.555C89.5442 47.3737 89.7029 47.1357 89.8276 46.841C89.9636 46.5463 90.0939 46.229 90.2186 45.889L93.5336 36.794H94.7236L98.3446 46.059C98.4126 46.229 98.5032 46.4897 98.6166 46.841C98.7299 47.181 98.7979 47.4813 98.8206 47.742C99.0132 47.7193 99.1946 47.708 99.3646 47.708C99.5459 47.6967 99.6932 47.691 99.8066 47.691V49H95.2336V47.878C95.5509 47.878 95.7662 47.8157 95.8796 47.691C96.0042 47.555 96.0609 47.3737 96.0496 47.147C96.0382 46.9203 95.9759 46.6653 95.8626 46.382L95.5226 45.447L91.8336 45.515L91.5616 46.314C91.5049 46.4613 91.4199 46.6823 91.3066 46.977C91.2046 47.2603 91.1082 47.4983 91.0176 47.691C91.1989 47.6683 91.4142 47.657 91.6636 47.657C91.9242 47.6457 92.1112 47.64 92.2246 47.64V49H88.5866ZM92.2586 44.24H95.0976L94.3156 42.115C94.1682 41.707 94.0379 41.299 93.9246 40.891C93.8112 40.4717 93.7262 40.1033 93.6696 39.786H93.6526C93.6072 39.9787 93.5392 40.2677 93.4486 40.653C93.3579 41.0383 93.2162 41.4973 93.0236 42.03L92.2586 44.24ZM100.724 49V47.878C100.985 47.8667 101.2 47.8327 101.37 47.776C101.551 47.7193 101.687 47.589 101.778 47.385C101.88 47.181 101.931 46.8523 101.931 46.399V39.888C101.931 39.582 101.937 39.2873 101.948 39.004C101.971 38.7207 101.988 38.5053 101.999 38.358C101.818 38.3693 101.591 38.3807 101.319 38.392C101.047 38.392 100.849 38.3977 100.724 38.409V37.1C101.529 37.0887 102.333 37.083 103.138 37.083C103.943 37.083 104.747 37.0773 105.552 37.066C106.549 37.0547 107.416 37.168 108.153 37.406C108.89 37.644 109.456 38.0293 109.853 38.562C110.25 39.0947 110.437 39.8143 110.414 40.721C110.403 41.197 110.284 41.6503 110.057 42.081C109.842 42.5117 109.513 42.8913 109.071 43.22C108.64 43.5487 108.091 43.8093 107.422 44.002C107.637 44.0927 107.847 44.24 108.051 44.444C108.266 44.648 108.448 44.8633 108.595 45.09L109.394 46.28C109.643 46.6653 109.864 46.9713 110.057 47.198C110.25 47.4247 110.442 47.5947 110.635 47.708C110.828 47.81 111.049 47.8667 111.298 47.878V49H108.493C108.289 48.8527 108.085 48.643 107.881 48.371C107.688 48.0877 107.479 47.7647 107.252 47.402L105.994 45.362C105.847 45.1353 105.716 44.9427 105.603 44.784C105.501 44.6253 105.393 44.4893 105.28 44.376C105.099 44.376 104.946 44.376 104.821 44.376C104.696 44.376 104.555 44.376 104.396 44.376V46.195C104.396 46.5123 104.39 46.8127 104.379 47.096C104.368 47.3793 104.351 47.5947 104.328 47.742C104.453 47.7307 104.611 47.725 104.804 47.725C104.997 47.7137 105.184 47.708 105.365 47.708C105.558 47.6967 105.694 47.691 105.773 47.691V49H100.724ZM105.212 43.152C105.847 43.152 106.357 43.0613 106.742 42.88C107.127 42.6873 107.405 42.404 107.575 42.03C107.756 41.6447 107.847 41.163 107.847 40.585C107.847 40.041 107.762 39.616 107.592 39.31C107.422 38.9927 107.207 38.7603 106.946 38.613C106.697 38.4543 106.442 38.358 106.181 38.324C105.92 38.2787 105.705 38.256 105.535 38.256C105.297 38.256 105.093 38.2843 104.923 38.341C104.753 38.3977 104.623 38.5223 104.532 38.715C104.441 38.9077 104.396 39.2023 104.396 39.599V43.084C104.521 43.0953 104.651 43.1123 104.787 43.135C104.923 43.1463 105.065 43.152 105.212 43.152ZM112.378 49V47.878C112.639 47.8667 112.854 47.8327 113.024 47.776C113.206 47.7193 113.342 47.589 113.432 47.385C113.534 47.181 113.585 46.8523 113.585 46.399V39.888C113.585 39.582 113.591 39.2873 113.602 39.004C113.625 38.7207 113.642 38.5053 113.653 38.358C113.472 38.3693 113.245 38.3807 112.973 38.392C112.701 38.392 112.503 38.3977 112.378 38.409V37.1H117.257V38.222C117.008 38.2333 116.793 38.2673 116.611 38.324C116.43 38.3807 116.288 38.511 116.186 38.715C116.096 38.9077 116.05 39.2363 116.05 39.701V42.285H117.274L118.583 40.058C118.776 39.718 118.98 39.378 119.195 39.038C119.411 38.698 119.592 38.4657 119.739 38.341C119.558 38.3523 119.365 38.3637 119.161 38.375C118.957 38.3863 118.793 38.3977 118.668 38.409V37.1H122.833V38.222C122.584 38.2333 122.312 38.2787 122.017 38.358C121.734 38.4373 121.439 38.596 121.133 38.834C120.827 39.072 120.516 39.446 120.198 39.956L118.566 42.574C118.793 42.7213 118.991 42.88 119.161 43.05C119.343 43.2087 119.501 43.3843 119.637 43.577L121.388 46.042C121.615 46.3593 121.847 46.6597 122.085 46.943C122.335 47.215 122.59 47.436 122.85 47.606C123.111 47.776 123.366 47.8667 123.615 47.878V49H120.997C120.907 48.9887 120.759 48.8867 120.555 48.694C120.351 48.5013 120.136 48.269 119.909 47.997C119.683 47.725 119.49 47.4813 119.331 47.266L117.648 44.818C117.501 44.6027 117.337 44.3817 117.155 44.155C116.985 43.9283 116.821 43.7583 116.662 43.645H116.05V46.212C116.05 46.518 116.045 46.8127 116.033 47.096C116.022 47.3793 116.005 47.5947 115.982 47.742C116.164 47.7193 116.39 47.708 116.662 47.708C116.946 47.6967 117.144 47.691 117.257 47.691V49H112.378ZM130.261 44.903C130.261 44.427 130.187 44.087 130.04 43.883C129.893 43.6677 129.689 43.5317 129.428 43.475C129.179 43.4183 128.901 43.3957 128.595 43.407L128.153 43.424V46.212C128.153 46.518 128.147 46.807 128.136 47.079C128.125 47.351 128.108 47.5607 128.085 47.708H130.363C130.703 47.708 131.032 47.6343 131.349 47.487C131.666 47.3283 131.927 47.0733 132.131 46.722C132.335 46.3593 132.437 45.872 132.437 45.26H133.542L133.457 49H124.481V47.878C124.742 47.8667 124.957 47.8327 125.127 47.776C125.308 47.7193 125.444 47.589 125.535 47.385C125.637 47.181 125.688 46.8523 125.688 46.399V39.888C125.688 39.582 125.694 39.2873 125.705 39.004C125.728 38.7207 125.745 38.5053 125.756 38.358C125.575 38.3693 125.348 38.3807 125.076 38.392C124.804 38.392 124.606 38.3977 124.481 38.409V37.1H132.981L133.083 40.398H131.961C131.961 39.7747 131.853 39.3043 131.638 38.987C131.423 38.6697 131.156 38.46 130.839 38.358C130.522 38.2447 130.21 38.1937 129.904 38.205L129.292 38.222C129.054 38.222 128.85 38.256 128.68 38.324C128.51 38.3807 128.38 38.5167 128.289 38.732C128.198 38.936 128.153 39.259 128.153 39.701V42.251H130.142L130.074 40.772H131.383V44.903H130.261ZM143.878 40.942C143.878 40.33 143.793 39.8257 143.623 39.429C143.453 39.021 143.21 38.7207 142.892 38.528C142.586 38.324 142.218 38.2277 141.787 38.239H140.971V46.212C140.971 46.518 140.966 46.8127 140.954 47.096C140.943 47.3793 140.926 47.5947 140.903 47.742C141.096 47.7193 141.34 47.708 141.634 47.708C141.94 47.6967 142.15 47.691 142.263 47.691V49H137.299V47.878C137.56 47.8667 137.775 47.8327 137.945 47.776C138.127 47.7193 138.263 47.589 138.353 47.385C138.455 47.181 138.506 46.8523 138.506 46.399V38.256H137.724C137.078 38.2673 136.568 38.4883 136.194 38.919C135.82 39.3497 135.633 40.024 135.633 40.942H134.511L134.596 37.1H144.898L145 40.942H143.878ZM146.146 47.878C146.407 47.8667 146.622 47.8327 146.792 47.776C146.973 47.7193 147.109 47.589 147.2 47.385C147.302 47.181 147.353 46.8523 147.353 46.399V39.888C147.353 39.582 147.359 39.2873 147.37 39.004C147.393 38.7207 147.41 38.5053 147.421 38.358C147.24 38.3693 147.013 38.3807 146.741 38.392C146.469 38.392 146.271 38.3977 146.146 38.409V37.1C146.951 37.0887 147.755 37.083 148.56 37.083C149.365 37.083 150.169 37.0773 150.974 37.066C151.971 37.0547 152.838 37.185 153.575 37.457C154.323 37.729 154.895 38.1483 155.292 38.715C155.7 39.2817 155.893 40.0183 155.87 40.925C155.859 41.3783 155.751 41.826 155.547 42.268C155.343 42.6987 155.043 43.0953 154.646 43.458C154.249 43.8093 153.751 44.0983 153.15 44.325C152.549 44.5517 151.847 44.6763 151.042 44.699C150.793 44.7103 150.572 44.716 150.379 44.716C150.198 44.716 150.011 44.7103 149.818 44.699V46.195C149.818 46.5123 149.812 46.8127 149.801 47.096C149.79 47.3793 149.773 47.5947 149.75 47.742C149.875 47.7307 150.033 47.725 150.226 47.725C150.419 47.7137 150.606 47.708 150.787 47.708C150.98 47.6967 151.116 47.691 151.195 47.691V49H146.146V47.878ZM149.818 43.424C149.943 43.4353 150.067 43.4467 150.192 43.458C150.317 43.4693 150.447 43.475 150.583 43.475C151.206 43.475 151.711 43.373 152.096 43.169C152.493 42.9537 152.782 42.6477 152.963 42.251C153.144 41.843 153.235 41.35 153.235 40.772C153.235 40.2053 153.156 39.752 152.997 39.412C152.85 39.072 152.657 38.8227 152.419 38.664C152.181 38.494 151.932 38.3863 151.671 38.341C151.41 38.2843 151.172 38.256 150.957 38.256C150.719 38.256 150.515 38.2843 150.345 38.341C150.175 38.3977 150.045 38.5223 149.954 38.715C149.863 38.9077 149.818 39.2023 149.818 39.599V43.424ZM156.904 49V47.878C157.164 47.8667 157.38 47.8327 157.55 47.776C157.731 47.7193 157.867 47.589 157.958 47.385C158.06 47.181 158.111 46.8523 158.111 46.399V39.888C158.111 39.582 158.116 39.2873 158.128 39.004C158.15 38.7207 158.167 38.5053 158.179 38.358C157.997 38.3693 157.771 38.3807 157.499 38.392C157.227 38.392 157.028 38.3977 156.904 38.409V37.1H161.783V38.222C161.533 38.2333 161.318 38.2673 161.137 38.324C160.955 38.3807 160.814 38.511 160.712 38.715C160.621 38.9077 160.576 39.2363 160.576 39.701V46.212C160.576 46.518 160.57 46.807 160.559 47.079C160.547 47.351 160.53 47.5607 160.508 47.708H162.786C163.454 47.6967 163.976 47.4643 164.35 47.011C164.735 46.5463 164.928 45.8493 164.928 44.92H166.067L165.965 49H156.904ZM166.597 49V47.827C166.915 47.827 167.17 47.7363 167.362 47.555C167.555 47.3737 167.714 47.1357 167.838 46.841C167.974 46.5463 168.105 46.229 168.229 45.889L171.544 36.794H172.734L176.355 46.059C176.423 46.229 176.514 46.4897 176.627 46.841C176.741 47.181 176.809 47.4813 176.831 47.742C177.024 47.7193 177.205 47.708 177.375 47.708C177.557 47.6967 177.704 47.691 177.817 47.691V49H173.244V47.878C173.562 47.878 173.777 47.8157 173.89 47.691C174.015 47.555 174.072 47.3737 174.06 47.147C174.049 46.9203 173.987 46.6653 173.873 46.382L173.533 45.447L169.844 45.515L169.572 46.314C169.516 46.4613 169.431 46.6823 169.317 46.977C169.215 47.2603 169.119 47.4983 169.028 47.691C169.21 47.6683 169.425 47.657 169.674 47.657C169.935 47.6457 170.122 47.64 170.235 47.64V49H166.597ZM170.269 44.24H173.108L172.326 42.115C172.179 41.707 172.049 41.299 171.935 40.891C171.822 40.4717 171.737 40.1033 171.68 39.786H171.663C171.618 39.9787 171.55 40.2677 171.459 40.653C171.369 41.0383 171.227 41.4973 171.034 42.03L170.269 44.24ZM187.175 40.908C187.027 39.9673 186.71 39.259 186.223 38.783C185.747 38.307 185.112 38.0633 184.319 38.052C183.729 38.052 183.214 38.188 182.772 38.46C182.33 38.732 181.961 39.0947 181.667 39.548C181.383 40.0013 181.168 40.517 181.021 41.095C180.885 41.673 180.817 42.268 180.817 42.88C180.817 43.8547 180.953 44.7217 181.225 45.481C181.508 46.229 181.916 46.8183 182.449 47.249C182.981 47.6797 183.627 47.895 184.387 47.895C185.101 47.895 185.809 47.7137 186.512 47.351C187.214 46.977 187.804 46.4613 188.28 45.804L189.096 46.552C188.54 47.3113 187.957 47.8893 187.345 48.286C186.733 48.6713 186.132 48.932 185.543 49.068C184.965 49.204 184.443 49.272 183.979 49.272C183.106 49.272 182.313 49.119 181.599 48.813C180.885 48.4957 180.267 48.065 179.746 47.521C179.236 46.9657 178.839 46.3253 178.556 45.6C178.284 44.8633 178.148 44.07 178.148 43.22C178.148 42.4493 178.272 41.6843 178.522 40.925C178.771 40.1657 179.139 39.48 179.627 38.868C180.125 38.2447 180.749 37.7517 181.497 37.389C182.245 37.015 183.112 36.828 184.098 36.828C184.54 36.828 185.021 36.9017 185.543 37.049C186.075 37.185 186.574 37.389 187.039 37.661L186.971 36.947H188.28V40.908H187.175ZM195.887 44.903C195.887 44.427 195.813 44.087 195.666 43.883C195.519 43.6677 195.315 43.5317 195.054 43.475C194.805 43.4183 194.527 43.3957 194.221 43.407L193.779 43.424V46.212C193.779 46.518 193.773 46.807 193.762 47.079C193.751 47.351 193.734 47.5607 193.711 47.708H195.989C196.329 47.708 196.658 47.6343 196.975 47.487C197.292 47.3283 197.553 47.0733 197.757 46.722C197.961 46.3593 198.063 45.872 198.063 45.26H199.168L199.083 49H190.107V47.878C190.368 47.8667 190.583 47.8327 190.753 47.776C190.934 47.7193 191.07 47.589 191.161 47.385C191.263 47.181 191.314 46.8523 191.314 46.399V39.888C191.314 39.582 191.32 39.2873 191.331 39.004C191.354 38.7207 191.371 38.5053 191.382 38.358C191.201 38.3693 190.974 38.3807 190.702 38.392C190.43 38.392 190.232 38.3977 190.107 38.409V37.1H198.607L198.709 40.398H197.587C197.587 39.7747 197.479 39.3043 197.264 38.987C197.049 38.6697 196.782 38.46 196.465 38.358C196.148 38.2447 195.836 38.1937 195.53 38.205L194.918 38.222C194.68 38.222 194.476 38.256 194.306 38.324C194.136 38.3807 194.006 38.5167 193.915 38.732C193.824 38.936 193.779 39.259 193.779 39.701V42.251H195.768L195.7 40.772H197.009V44.903H195.887Z" fill="#CC1808"/>
<path d="M0.985291 25.5H273.015" stroke="black"/>
</svg>
