<svg width="96" height="97" viewBox="0 0 96 97" fill="none" xmlns="http://www.w3.org/2000/svg">
<ellipse cx="48" cy="48.5" rx="48" ry="48.5" fill="#D31F39"/>
<g clip-path="url(#clip0_37_56)">
<path fill-rule="evenodd" clip-rule="evenodd" d="M73.5 43.7507C72.5702 43.7539 71.6643 44.0275 70.9069 44.5338C70.1494 45.0401 69.5776 45.7543 69.27 46.5782H60.255C60.2045 46.5759 60.154 46.5806 60.105 46.5923L55.365 38.8606C55.4044 38.8215 55.4396 38.7788 55.47 38.7331L60.015 31.3972C60.2909 31.4539 60.5726 31.4822 60.855 31.4817C61.8451 31.4774 62.8063 31.1678 63.5907 30.6006C64.3752 30.0333 64.9395 29.2398 65.1968 28.3421C65.4542 27.4444 65.3903 26.4921 65.0151 25.6318C64.6399 24.7714 63.974 24.0507 63.12 23.5803C62.4337 23.2006 61.6515 23.0007 60.855 23.0014C60.0679 23.0027 59.2949 23.1978 58.6132 23.5673C57.9314 23.9368 57.3649 24.4677 56.97 25.107C56.5031 25.8651 56.2958 26.7396 56.3763 27.612C56.4568 28.4844 56.8212 29.3125 57.42 29.9838L52.875 37.3197C52.8449 37.3504 52.8288 37.3908 52.83 37.4324H43.17C43.1617 37.3928 43.1465 37.3547 43.125 37.3197L38.595 29.9838C39.022 29.4946 39.3338 28.926 39.51 28.3155C39.6855 27.6885 39.7055 27.0319 39.5684 26.3965C39.4313 25.7611 39.1408 25.1636 38.7191 24.6502C38.2975 24.1367 37.756 23.721 37.1364 23.4349C36.5168 23.1488 35.8355 23 35.145 23C34.3485 22.9993 33.5663 23.1992 32.88 23.5789C32.0243 24.0495 31.3573 24.7715 30.982 25.6334C30.6067 26.4953 30.5438 27.4492 30.8032 28.348C31.0625 29.2467 31.6296 30.0404 32.417 30.6065C33.2044 31.1726 34.1683 31.4796 35.16 31.4803C35.4375 31.4808 35.7142 31.4525 35.985 31.3958L40.53 38.7317C40.5568 38.7873 40.5981 38.8358 40.65 38.8725L35.91 46.5916C35.856 46.5792 35.8004 46.5745 35.745 46.5775H26.745C26.3899 45.6344 25.6912 44.8396 24.7724 44.3335C23.8536 43.8274 22.7738 43.6426 21.7239 43.8118C20.674 43.9809 19.7216 44.4931 19.0349 45.2578C18.3483 46.0226 17.9718 46.9906 17.9718 47.9908C17.9718 48.9911 18.3483 49.9591 19.0349 50.7238C19.7216 51.4886 20.674 52.0008 21.7239 52.1699C22.7738 52.3391 23.8536 52.1543 24.7724 51.6482C25.6912 51.1421 26.3899 50.3472 26.745 49.4042H35.745C35.8004 49.4072 35.856 49.4025 35.91 49.3901L40.65 57.1078C40.5976 57.1441 40.5563 57.1927 40.53 57.2486L35.985 64.5986C35.7142 64.5417 35.4375 64.5131 35.16 64.5134C34.1687 64.5149 33.2054 64.8225 32.4186 65.3887C31.6318 65.955 31.0651 66.7484 30.8059 67.6468C30.5467 68.5453 30.6093 69.4988 30.9841 70.3605C31.3589 71.2222 32.0251 71.9443 32.88 72.4155C33.5663 72.7952 34.3485 72.995 35.145 72.9944C35.8367 72.9938 36.5189 72.8441 37.1393 72.5569C37.7596 72.2697 38.3015 71.8527 38.7232 71.3379C39.1449 70.8231 39.4351 70.2243 39.5715 69.5876C39.7079 68.9509 39.6869 68.2933 39.51 67.6655C39.3378 67.0551 39.0198 66.4896 38.58 66.012L43.125 58.6761C43.1466 58.6409 43.1618 58.6026 43.17 58.5627H52.83C52.8382 58.6026 52.8534 58.6409 52.875 58.6761L57.42 66.012C56.9793 66.487 56.6656 67.0538 56.505 67.6655C56.3481 68.2045 56.3084 68.7678 56.3883 69.3215C56.4682 69.8753 56.666 70.4083 56.97 70.8887C57.3649 71.5281 57.9314 72.059 58.6132 72.4285C59.2949 72.798 60.0679 72.9931 60.855 72.9944C61.6515 72.995 62.4337 72.7952 63.12 72.4155C63.9744 71.9453 64.6406 71.2245 65.0161 70.364C65.3915 69.5035 65.4555 68.551 65.1981 67.6531C64.9407 66.7551 64.3763 65.9614 63.5915 65.3942C62.8068 64.8269 61.8453 64.5174 60.855 64.5134C60.5725 64.5131 60.2909 64.5417 60.015 64.5986L55.47 57.2486C55.4398 57.2028 55.4046 57.1601 55.365 57.1211L60.105 49.3894C60.154 49.4011 60.2045 49.4058 60.255 49.4035H69.27C69.5485 50.132 70.0347 50.7747 70.6756 51.2614C71.3166 51.7481 72.0876 52.0602 72.9045 52.1636C73.7214 52.2669 74.5529 52.1576 75.3082 51.8475C76.0635 51.5374 76.7135 51.0385 77.1874 50.4052C77.6613 49.7719 77.9408 49.0286 77.9955 48.2563C78.0502 47.484 77.8779 46.7124 77.4974 46.0258C77.1169 45.3392 76.5429 44.7639 75.838 44.3627C75.133 43.9614 74.3243 43.7498 73.5 43.7507V43.7507ZM59.55 26.5345C59.6825 26.3199 59.8729 26.1418 60.102 26.0181C60.331 25.8945 60.5908 25.8297 60.855 25.8303C61.1177 25.8335 61.3749 25.9011 61.6013 26.0263C61.8276 26.1515 62.0152 26.3301 62.1455 26.5443C62.2758 26.7584 62.3443 27.0009 62.3442 27.2476C62.3441 27.4942 62.2755 27.7366 62.145 27.9507C61.9384 28.268 61.6093 28.498 61.2263 28.5928C60.8434 28.6875 60.4362 28.6396 60.09 28.4592C59.7498 28.2684 59.5028 27.96 59.4018 27.6003C59.3009 27.2405 59.3541 26.8579 59.55 26.5345V26.5345ZM35.91 28.457C35.5637 28.6375 35.1566 28.6854 34.7737 28.5907C34.3907 28.4959 34.0616 28.2659 33.855 27.9486C33.7245 27.7345 33.6559 27.4921 33.6558 27.2454C33.6557 26.9988 33.7242 26.7563 33.8545 26.5421C33.9848 26.328 34.1724 26.1494 34.3987 26.0242C34.6251 25.899 34.8823 25.8314 35.145 25.8282C35.4767 25.8248 35.8003 25.9247 36.0651 26.1124C36.3298 26.3 36.5209 26.5648 36.6083 26.8653C36.6958 27.1658 36.6747 27.485 36.5483 27.773C36.4219 28.061 36.1975 28.3016 35.91 28.457V28.457ZM22.5 49.4085C22.2021 49.4094 21.9105 49.3274 21.6623 49.1727C21.4141 49.0179 21.2203 48.7975 21.1056 48.5394C20.9909 48.2812 20.9603 47.9969 21.0178 47.7224C21.0753 47.4479 21.2182 47.1956 21.4285 46.9974C21.6388 46.7993 21.907 46.6642 22.1991 46.6092C22.4913 46.5543 22.7942 46.582 23.0696 46.6888C23.3449 46.7957 23.5803 46.9768 23.7459 47.2093C23.9116 47.4419 24 47.7153 24 47.9951C23.9996 48.369 23.8416 48.7275 23.5605 48.9923C23.2795 49.2572 22.8982 49.4068 22.5 49.4085V49.4085ZM36.45 69.4655C36.2437 69.783 35.9146 70.0133 35.5316 70.1082C35.1485 70.2031 34.7413 70.1553 34.395 69.9747C34.224 69.8809 34.0743 69.7564 33.9546 69.6083C33.8348 69.4602 33.7474 69.2914 33.6972 69.1115C33.647 68.9316 33.6352 68.7442 33.6622 68.56C33.6893 68.3758 33.7548 68.1984 33.855 68.038C33.9905 67.8268 34.1818 67.652 34.4105 67.5307C34.6392 67.4094 34.8974 67.3457 35.16 67.3458C35.4242 67.3443 35.684 67.4088 35.9129 67.5325C36.1419 67.6563 36.3317 67.835 36.4629 68.0503C36.5941 68.2656 36.6621 68.5097 36.6598 68.7578C36.6576 69.0058 36.5851 69.2488 36.45 69.462V69.4655ZM60.09 67.5296C60.4358 67.3471 60.8436 67.2982 61.2271 67.3931C61.6107 67.488 61.9399 67.7193 62.145 68.038C62.2452 68.1984 62.3107 68.3758 62.3377 68.56C62.3648 68.7442 62.3529 68.9316 62.3028 69.1115C62.2526 69.2914 62.1652 69.4602 62.0454 69.6083C61.9257 69.7564 61.776 69.8809 61.605 69.9747C61.379 70.1039 61.1196 70.1724 60.855 70.1725C60.5907 70.1735 60.3308 70.1089 60.1016 69.9853C59.8725 69.8616 59.6821 69.6832 59.55 69.4683C59.3527 69.1423 59.2988 68.7569 59.3997 68.3941C59.5005 68.0314 59.7482 67.7199 60.09 67.5261V67.5296ZM52.755 55.7409H43.26L38.52 47.9944L43.26 40.2627H52.755L57.495 47.9944L52.755 55.7409ZM73.5 49.4085C73.2021 49.4094 72.9105 49.3274 72.6623 49.1727C72.4141 49.0179 72.2203 48.7975 72.1056 48.5394C71.9909 48.2812 71.9603 47.9969 72.0178 47.7224C72.0753 47.4479 72.2182 47.1956 72.4285 46.9974C72.6388 46.7993 72.907 46.6642 73.1992 46.6092C73.4913 46.5543 73.7942 46.582 74.0696 46.6888C74.3449 46.7957 74.5803 46.9768 74.7459 47.2093C74.9116 47.4419 75 47.7153 75 47.9951C74.9996 48.369 74.8416 48.7275 74.5605 48.9923C74.2795 49.2572 73.8982 49.4068 73.5 49.4085V49.4085Z" fill="white"/>
</g>
<defs>
<clipPath id="clip0_37_56">
<rect width="60" height="50" fill="white" transform="translate(18 23)"/>
</clipPath>
</defs>
</svg>
