<svg width="96" height="97" viewBox="0 0 96 97" fill="none" xmlns="http://www.w3.org/2000/svg">
<ellipse cx="48" cy="48.5" rx="48" ry="48.5" fill="#D31F39"/>
<path d="M71.5625 43.3768C71.5625 40.6845 69.3721 38.4948 66.6813 38.4948H54.4169C55.3183 35.5489 56.3887 29.932 52.912 26.5083C51.8629 25.4756 50.5277 24.8913 49.1521 24.8624C47.7661 24.8294 46.5581 25.3264 45.6582 26.2883C45.1653 26.818 44.8928 27.5158 44.8964 28.2394V28.7282C44.8964 33.7538 42.6064 38.4082 38.7708 41.1768C37.637 41.9956 36.391 42.6467 35.0714 43.11C35.0401 42.5193 34.7838 41.9629 34.355 41.5553C33.9263 41.1477 33.3578 40.9197 32.7662 40.9183H25.7551C25.1407 40.919 24.5518 41.1633 24.1173 41.5976C23.6829 42.0319 23.4384 42.6208 23.4375 43.2351V69.8208C23.4382 70.4352 23.6826 71.0242 24.1171 71.4587C24.5516 71.8932 25.1406 72.1376 25.7551 72.1383H32.7676C33.3818 72.1374 33.9705 71.893 34.4048 71.4587C34.8391 71.0244 35.0835 70.4356 35.0844 69.8214V68.8775C39.1716 69.5678 43.3881 69.9149 47.7131 69.9149C52.5483 69.9149 57.5182 69.4832 62.5879 68.6197C63.822 68.5853 64.9942 68.0713 65.8555 67.1868C66.7169 66.3022 67.1995 65.1168 67.201 63.8821C67.201 63.0881 67.0023 62.3401 66.6558 61.6821C68.6337 61.0771 70.0775 59.2346 70.0775 57.0614C70.0775 56.0439 69.7599 55.1021 69.2216 54.3224C69.9333 53.9055 70.5237 53.3099 70.9343 52.5946C71.3449 51.8792 71.5614 51.069 71.5625 50.2442C71.5625 48.9091 71.0056 47.7046 70.1139 46.8424C70.573 46.3896 70.9374 45.85 71.1861 45.255C71.4348 44.66 71.5627 44.0216 71.5625 43.3768V43.3768ZM32.3344 69.3883H26.1875V43.6683H32.3344V69.3883V69.3883ZM66.827 48.2594C67.9215 48.2594 68.8125 49.1497 68.8125 50.2449C68.8125 51.3401 67.9215 52.2297 66.827 52.2297H58.6904C58.3258 52.2297 57.976 52.3746 57.7182 52.6324C57.4603 52.8903 57.3154 53.24 57.3154 53.6047C57.3154 53.9694 57.4603 54.3191 57.7182 54.577C57.976 54.8348 58.3258 54.9797 58.6904 54.9797H65.2457C65.7978 54.9802 66.3271 55.1998 66.7174 55.5903C67.1077 55.9807 67.3271 56.5101 67.3275 57.0621C67.3268 57.614 67.1072 58.143 66.7169 58.5331C66.3267 58.9232 65.7976 59.1426 65.2457 59.1432H60.4697C60.105 59.1432 59.7553 59.2881 59.4974 59.5459C59.2396 59.8038 59.0947 60.1535 59.0947 60.5182C59.0947 60.8829 59.2396 61.2326 59.4974 61.4905C59.7553 61.7483 60.105 61.8932 60.4697 61.8932H62.4621C62.9895 61.8937 63.4952 62.1036 63.8681 62.4766C64.241 62.8496 64.4506 63.3554 64.451 63.8828C64.4503 64.4101 64.2405 64.9156 63.8677 65.2884C63.4948 65.6612 62.9893 65.871 62.4621 65.8717C62.3837 65.8717 62.306 65.8786 62.2297 65.8917C52.7236 67.5217 43.5978 67.5829 35.0844 66.0842V45.9982C36.9861 45.4455 38.7782 44.5686 40.3816 43.4063C44.9308 40.1221 47.6471 34.6352 47.6471 28.7282V28.2394C47.6464 28.2138 47.6536 28.1885 47.6677 28.1672C48.0287 27.7808 48.501 27.5966 49.0957 27.6117C49.7667 27.6254 50.4363 27.93 50.9829 28.4683C54.364 31.7972 51.3197 39.0538 51.2097 39.3095C51.141 39.4621 51.1025 39.6292 51.0943 39.8045C51.0943 39.8224 51.0894 39.8403 51.0888 39.8574L51.0881 39.8698C51.0881 39.9166 51.097 39.9613 51.1018 40.0073C51.1059 40.0486 51.1066 40.0898 51.1142 40.129C51.1231 40.1771 51.1396 40.2225 51.1534 40.2686C51.1657 40.3084 51.1747 40.349 51.1905 40.3868C51.2056 40.4253 51.2269 40.4597 51.2455 40.4961C51.2682 40.5401 51.2888 40.5855 51.3163 40.6268C51.3321 40.6508 51.3521 40.6714 51.3692 40.6941C51.4057 40.7436 51.4428 40.7924 51.4861 40.8364C51.4985 40.8488 51.5136 40.8591 51.526 40.8708C51.5782 40.9203 51.6319 40.9671 51.6924 41.0083C51.6992 41.0131 51.7061 41.0152 51.713 41.02C51.7762 41.0613 51.8402 41.1011 51.9117 41.1321C52.1014 41.2159 52.2994 41.2489 52.494 41.2448H66.6813C67.8569 41.2448 68.8132 42.2004 68.8132 43.3761C68.8132 44.5517 67.8576 45.5087 66.6819 45.5087H57.8001C57.4355 45.5087 57.0857 45.6536 56.8279 45.9114C56.57 46.1693 56.4251 46.519 56.4251 46.8837C56.4251 47.2484 56.57 47.5981 56.8279 47.856C57.0857 48.1138 57.4355 48.2587 57.8001 48.2587H66.8263L66.827 48.2594Z" fill="white"/>
</svg>
