<svg width="96" height="97" viewBox="0 0 96 97" fill="none" xmlns="http://www.w3.org/2000/svg">
<ellipse cx="48" cy="48.5" rx="48" ry="48.5" fill="#D31F39"/>
<path d="M49.7428 77.5391C51.8223 76.2163 53.9079 74.8997 55.9874 73.5769C56.9287 72.9802 57.8823 72.3895 58.799 71.7497C60.9769 70.2301 63.0195 68.5013 64.8345 66.5571C68.4274 62.6996 71.1591 58.1284 72.8879 53.1512C74.2968 49.0845 74.8997 44.7963 74.8997 40.5019V32.3132C74.8997 31.2119 74.1307 30.2521 73.0909 29.9384C72.3403 29.7107 71.5959 29.477 70.8761 29.1755C71.0729 29.2555 71.2698 29.3416 71.4667 29.4216C70.1808 28.874 68.975 28.1727 67.8676 27.3236L68.3659 27.7112C67.2708 26.8622 66.2864 25.884 65.4374 24.7889L65.825 25.2872C64.976 24.1798 64.2684 22.9678 63.7209 21.6819C63.8009 21.8788 63.887 22.0757 63.967 22.2726C63.7824 21.8296 63.6101 21.3743 63.4625 20.919C63.1303 19.8793 62.2013 19.1103 61.0877 19.1103H39.0069C37.9918 19.1103 36.9705 19.0795 35.9554 19.1103H35.9123C34.7926 19.1103 33.8697 19.8793 33.5375 20.919C33.3898 21.3805 33.2237 21.8296 33.033 22.2726C33.113 22.0757 33.1991 21.8788 33.2791 21.6819C32.7315 22.9678 32.024 24.1736 31.175 25.2872L31.5626 24.7889C30.7136 25.884 29.7292 26.8622 28.6341 27.7112L29.1324 27.3236C28.025 28.1727 26.813 28.874 25.5333 29.4216C25.7302 29.3416 25.927 29.2555 26.1239 29.1755C25.3979 29.477 24.6597 29.7107 23.9091 29.9384C22.8693 30.2521 22.1003 31.2119 22.1003 32.3132V39.7329C22.1003 41.0372 22.1003 42.3415 22.1926 43.6458C22.3894 46.2975 22.8386 48.943 23.583 51.4962C25.0596 56.5657 27.6189 61.2353 31.015 65.2651C33.6544 68.3967 36.8351 70.9314 40.2805 73.1155L47.0911 77.4345C47.1465 77.4714 47.208 77.5083 47.2634 77.5452C48.3523 78.2343 50.0258 77.8098 50.6287 76.6593C51.2685 75.4411 50.9056 74.0322 49.7428 73.2939C48.6353 72.5926 47.5279 71.8912 46.4266 71.1898C45.0116 70.2916 43.6027 69.3995 42.1877 68.5013C41.1972 67.8737 40.2312 67.2031 39.2961 66.4895L39.7944 66.877C37.4688 65.0744 35.377 62.9826 33.5744 60.657L33.962 61.1554C32.1286 58.7744 30.6028 56.1658 29.4277 53.3973C29.5077 53.5941 29.5938 53.791 29.6738 53.9879C28.4741 51.1394 27.6558 48.1493 27.2436 45.0854C27.2744 45.3008 27.3052 45.5223 27.3298 45.7376C27.0652 43.7442 27.0222 41.7509 27.0222 39.7514V32.3378C26.4192 33.1314 25.8163 33.9189 25.2134 34.7126C27.3359 34.0728 29.3908 33.2237 31.1934 31.9256C33.3283 30.3875 35.1494 28.4926 36.5029 26.2285C37.2474 24.9857 37.8441 23.6322 38.2871 22.2541C37.4934 22.857 36.7059 23.46 35.9123 24.0629H57.9931C59.0082 24.0629 60.0295 24.0875 61.0446 24.0629H61.0877C60.294 23.46 59.5065 22.857 58.7129 22.2541C60.2571 27.0714 63.764 31.2611 68.3659 33.4268C69.4733 33.9497 70.6115 34.3558 71.7866 34.7126C71.1837 33.9189 70.5807 33.1314 69.9778 32.3378V41.0618C69.9778 42.6245 69.8732 44.1872 69.6702 45.7376C69.701 45.5223 69.7317 45.3008 69.7563 45.0854C69.338 48.1432 68.5197 51.1394 67.3262 53.9879C67.4061 53.791 67.4923 53.5941 67.5723 53.3973C66.3972 56.1658 64.8714 58.7744 63.038 61.1554L63.4256 60.657C61.6229 62.9826 59.5311 65.0744 57.2056 66.877L57.7039 66.4895C56.3258 67.5538 54.8615 68.4705 53.3973 69.4057C51.773 70.4393 50.1488 71.4667 48.5246 72.5003C48.1062 72.7648 47.6817 73.0355 47.2634 73.3001C46.7281 73.6385 46.3036 74.1491 46.1313 74.7705C45.9714 75.3611 46.0452 76.1425 46.3774 76.6654C47.0788 77.7482 48.58 78.2773 49.7428 77.5391V77.5391Z" fill="white"/>
<path d="M35.9615 48.3708L42.28 54.6893L43.1782 55.5875C44.1195 56.5288 45.7191 56.5288 46.6605 55.5875L51.5393 50.7087L59.2605 42.9875L61.0385 41.2095C61.949 40.2989 62.0167 38.6255 61.0385 37.7272C60.0541 36.8229 58.5283 36.7552 57.5563 37.7272L52.6775 42.6061L44.9563 50.3273L43.1782 52.1053H46.6605L40.342 45.7868L39.4438 44.8886C38.5332 43.978 36.8598 43.9104 35.9615 44.8886C35.0571 45.873 34.9895 47.3926 35.9615 48.3708V48.3708Z" fill="white"/>
</svg>
